<svg xmlns="http://www.w3.org/2000/svg" width="1408" height="59" fill="none"><path fill="#F37021" d="M293.332 58.96H352V.001h-58.668v58.96Z"/><path fill="#53002F" d="M293.334 0h-58.666v58.96h58.666V0ZM176 0h-58.666v58.96H176V0Z"/><path fill="#00AD9C" d="M58.665.001v58.96h58.669V0h-58.67Z"/><path fill="#F37021" d="M58.663 0H0v58.96h58.663V0Z"/><path fill="#C10230" d="m264.001 0 29.333 29.466-29.333 29.495-29.333-29.495L264.001 0Z"/><path fill="#F37021" d="m264 9.742-19.636 19.725L264 49.19l19.635-19.724L264 9.742Z"/><path fill="#00AD9C" d="m264.002 19.418-10.005 10.05 10.005 10.05 10.005-10.05-10.005-10.05Z"/><path fill="#C10230" d="m29.334 0 29.33 29.466-29.33 29.495L0 29.466 29.334 0Z"/><path fill="#53002F" d="M29.334 9.742 9.698 29.466l19.636 19.725 19.635-19.725L29.334 9.742Z"/><path fill="#00AD9C" d="m29.334 19.417-10.005 10.05 10.005 10.05 10.005-10.05-10.005-10.05Z"/><path fill="#53002F" d="M176.001 58.96h58.666V.001h-58.666v58.96Z"/><path fill="#C10230" d="M205.687 0h28.894v58.96H176V29.378L205.687 0Z"/><path fill="#00AD9C" d="M234.667 0v58.96H176L234.667 0Z"/><path fill="#C10230" d="M218.03 45.869c0-2.465 1.987-4.463 4.437-4.463s4.437 1.998 4.437 4.463-1.987 4.463-4.437 4.463-4.437-1.998-4.437-4.463Z"/><path fill="#fff" d="M218.03 28.794c0-2.464 1.987-4.463 4.437-4.463s4.437 2 4.437 4.463c0 2.464-1.987 4.463-4.437 4.463s-4.437-1.999-4.437-4.463Z"/><path fill="#F37021" d="M137.402 1.242c0-.416.008-.831.024-1.242H176v37.852c-.691.042-1.387.061-2.091.061-20.162 0-36.507-16.418-36.507-36.673v.002Z"/><path fill="#C10230" d="M155.093 1.242c0-.416.011-.831.038-1.242H176v20.032a18.53 18.53 0 0 1-2.091.116c-10.391 0-18.818-8.468-18.818-18.908l.002.002ZM124.654 47.23a3.099 3.099 0 0 1 3.09-3.106 3.099 3.099 0 0 1 3.091 3.105 3.096 3.096 0 0 1-3.091 3.104 3.097 3.097 0 0 1-3.09-3.104Z"/><path fill="#00AD9C" d="M124.654 32.482a3.099 3.099 0 0 1 3.09-3.105 3.098 3.098 0 0 1 3.091 3.105 3.096 3.096 0 0 1-3.091 3.104 3.097 3.097 0 0 1-3.09-3.104Z"/><path fill="#fff" d="M127.744 20.451c1.707 0 3.09-1.39 3.09-3.104a3.097 3.097 0 0 0-3.09-3.103 3.097 3.097 0 0 0-3.09 3.104 3.097 3.097 0 0 0 3.09 3.103Z"/><path fill="#C10230" d="M297.104 34.71c0-5.022 1.896-10.047 5.69-13.858L323.551 0H352v26.854l-21.615 21.712c-7.588 7.622-20.004 7.622-27.591 0-3.794-3.811-5.69-8.836-5.69-13.858v.002Z"/><path fill="#53002F" d="M304.222 34.279c0-6.996 5.645-12.667 12.609-12.667s12.609 5.67 12.609 12.667c0 6.995-5.645 12.666-12.609 12.666s-12.609-5.67-12.609-12.666Z"/><path fill="#C10230" d="M310.262 34.279c0-3.644 2.941-6.598 6.569-6.598 3.627 0 6.568 2.954 6.568 6.598 0 3.643-2.941 6.598-6.568 6.598-3.628 0-6.569-2.955-6.569-6.598Z"/><path fill="#00AD9C" d="M313.538 34.279a3.3 3.3 0 0 1 3.293-3.308 3.3 3.3 0 0 1 3.294 3.308 3.3 3.3 0 0 1-3.294 3.307 3.3 3.3 0 0 1-3.293-3.307Z"/><path fill="#fff" d="M342.374 51.11a3.291 3.291 0 0 1 3.284-3.3 3.29 3.29 0 0 1 3.284 3.3 3.292 3.292 0 0 1-3.284 3.298 3.292 3.292 0 0 1-3.284-3.299ZM297.184 6.572a2.925 2.925 0 0 1 2.918-2.93 2.924 2.924 0 0 1 2.917 2.93 2.924 2.924 0 0 1-2.917 2.93 2.925 2.925 0 0 1-2.918-2.93Z"/><path fill="#F37021" d="M326.147 14.436c0-5.465 4.411-9.895 9.851-9.895 5.441 0 9.851 4.43 9.851 9.895s-4.41 9.895-9.851 9.895c-5.44 0-9.851-4.43-9.851-9.895Z"/><path fill="#C10230" d="M330.894 14.436c0-2.832 2.286-5.127 5.104-5.127 2.82 0 5.106 2.295 5.106 5.127s-2.286 5.13-5.106 5.13c-2.819 0-5.104-2.296-5.104-5.13ZM82.78 3.788c5 0 10.001 1.904 13.795 5.716l20.757 20.85V58.96H90.599l-21.615-21.74c-7.588-7.622-7.588-20.095 0-27.715 3.794-3.812 8.797-5.716 13.796-5.716Z"/><path fill="#53002F" d="M83.21 10.939c6.964 0 12.609 5.67 12.609 12.666s-5.645 12.666-12.61 12.666c-6.964 0-12.609-5.67-12.609-12.666 0-6.995 5.645-12.666 12.61-12.666Z"/><path fill="#C10230" d="M83.21 17.007c3.627 0 6.568 2.954 6.568 6.598 0 3.644-2.941 6.598-6.569 6.598-3.627 0-6.568-2.954-6.568-6.598 0-3.644 2.941-6.598 6.569-6.598Z"/><path fill="#00AD9C" d="M83.21 20.296a3.3 3.3 0 0 1 3.292 3.308 3.3 3.3 0 0 1-3.293 3.308 3.3 3.3 0 0 1-3.293-3.308 3.3 3.3 0 0 1 3.293-3.308Z"/><path fill="#fff" d="M66.454 49.262a3.292 3.292 0 0 1 3.284 3.299 3.29 3.29 0 0 1-3.284 3.299 3.29 3.29 0 0 1-3.284-3.3 3.292 3.292 0 0 1 3.284-3.298ZM110.793 3.868a2.925 2.925 0 0 1 2.918 2.93 2.925 2.925 0 0 1-2.918 2.931 2.924 2.924 0 0 1-2.917-2.93 2.924 2.924 0 0 1 2.917-2.93Z"/><path fill="#F37021" d="M102.963 32.962c5.44 0 9.851 4.43 9.851 9.895s-4.411 9.896-9.851 9.896c-5.44 0-9.851-4.43-9.851-9.896 0-5.465 4.41-9.895 9.851-9.895Z"/><path fill="#C10230" d="M102.963 37.73c2.819 0 5.104 2.295 5.104 5.128 0 2.832-2.285 5.129-5.104 5.129-2.82 0-5.106-2.297-5.106-5.13 0-2.832 2.285-5.127 5.106-5.127Z"/><path fill="#F37021" d="M527.999 58.958h58.668V0h-58.668v58.958Z"/><path fill="#53002F" d="M528 .001h-58.667V58.96H528V.001ZM410.663.001H352v58.958h58.663V0Z"/><path fill="#C10230" d="m498.667 0 29.334 29.466-29.334 29.492-29.334-29.492L498.667 0Z"/><path fill="#F37021" d="M498.666 9.742 479.03 29.467l19.636 19.724 19.636-19.724-19.636-19.725Z"/><path fill="#00AD9C" d="m498.667 19.418-10.004 10.05 10.004 10.05 10.005-10.05-10.005-10.05Z"/><path fill="#53002F" d="M410.664 58.958h58.67V0h-58.67v58.958Z"/><path fill="#C10230" d="M440.353 0h28.894v58.958h-58.583V29.377L440.353 0Z"/><path fill="#00AD9C" d="M469.333 0v58.958h-58.669L469.333 0Z"/><path fill="#C10230" d="M452.698 45.87c0-2.465 1.987-4.462 4.437-4.462s4.436 1.997 4.436 4.462c0 2.464-1.986 4.463-4.436 4.463s-4.437-1.997-4.437-4.463Z"/><path fill="#fff" d="M452.698 28.794c0-2.464 1.987-4.463 4.437-4.463s4.436 2 4.436 4.463c0 2.464-1.986 4.463-4.436 4.463s-4.437-1.999-4.437-4.463Z"/><path fill="#C10230" d="M703.999.038h-58.666V58.96h58.666V.039Z"/><path fill="#53002F" d="M645.333 32.504V.001h17.726v32.173c0 8.353 4.588 12.323 11.607 12.323 7.018 0 11.607-3.806 11.607-11.91V0h17.725v32.09c0 18.692-11.607 26.868-29.514 26.868-17.906 0-29.152-8.342-29.152-26.454h.001Z"/><path fill="#00AD9C" d="M663.06.001v32.173c0 8.353 4.589 12.323 11.607 12.323 7.018 0 11.607-3.806 11.607-11.91V0h-23.215l.001.001Z"/><path fill="#53002F" d="M670.23 27.991c0-2.465 1.987-4.462 4.437-4.462s4.437 1.997 4.437 4.462c0 2.466-1.987 4.463-4.437 4.463s-4.437-1.997-4.437-4.463Z"/><path fill="#fff" d="M670.23 10.917c0-2.464 1.987-4.463 4.437-4.463s4.437 1.999 4.437 4.463-1.987 4.463-4.437 4.463-4.437-2-4.437-4.463Z"/><path fill="#F37021" d="M372.068 1.243c0-.415.008-.83.024-1.242h38.571v37.852c-.691.043-1.384.062-2.088.062-20.162 0-36.507-16.419-36.507-36.673v.001Z"/><path fill="#C10230" d="M389.759 1.243c0-.415.011-.83.038-1.242h20.866v20.032c-.684.078-1.381.116-2.088.116-10.391 0-18.818-8.468-18.818-18.907l.002.001ZM359.32 47.23a3.099 3.099 0 0 1 3.09-3.106 3.099 3.099 0 0 1 3.092 3.105 3.098 3.098 0 0 1-3.092 3.104 3.097 3.097 0 0 1-3.09-3.104Z"/><path fill="#00AD9C" d="M359.32 32.482a3.099 3.099 0 0 1 3.09-3.105 3.099 3.099 0 0 1 3.092 3.105 3.097 3.097 0 0 1-3.092 3.104 3.097 3.097 0 0 1-3.09-3.104Z"/><path fill="#fff" d="M362.41 20.451c1.707 0 3.09-1.39 3.09-3.104a3.097 3.097 0 0 0-3.09-3.103 3.097 3.097 0 0 0-3.09 3.104 3.097 3.097 0 0 0 3.09 3.103Z"/><path fill="#C10230" d="M531.77 34.71c0-5.022 1.896-10.047 5.69-13.858L558.217.002h28.449v26.854l-21.615 21.712c-7.588 7.622-20.004 7.622-27.591 0-3.794-3.812-5.69-8.836-5.69-13.858Z"/><path fill="#53002F" d="M538.889 34.28c0-6.996 5.645-12.666 12.61-12.666 6.964 0 12.609 5.67 12.609 12.666s-5.645 12.666-12.609 12.666c-6.965 0-12.61-5.67-12.61-12.666Z"/><path fill="#C10230" d="M544.93 34.28c0-3.644 2.941-6.598 6.569-6.598 3.627 0 6.568 2.954 6.568 6.598 0 3.644-2.941 6.598-6.568 6.598-3.628 0-6.569-2.954-6.569-6.598Z"/><path fill="#00AD9C" d="M548.204 34.28a3.3 3.3 0 0 1 3.293-3.308 3.3 3.3 0 0 1 3.294 3.308 3.3 3.3 0 0 1-3.294 3.308 3.3 3.3 0 0 1-3.293-3.308Z"/><path fill="#fff" d="M577.04 51.11a3.291 3.291 0 0 1 3.284-3.3 3.29 3.29 0 0 1 3.284 3.3 3.292 3.292 0 0 1-3.284 3.298 3.29 3.29 0 0 1-3.284-3.299ZM531.85 6.572a2.924 2.924 0 0 1 2.918-2.93 2.924 2.924 0 0 1 2.917 2.93 2.924 2.924 0 0 1-2.917 2.93 2.924 2.924 0 0 1-2.918-2.93Z"/><path fill="#F37021" d="M560.813 14.438c0-5.466 4.411-9.896 9.851-9.896 5.441 0 9.851 4.43 9.851 9.896 0 5.464-4.41 9.895-9.851 9.895-5.44 0-9.851-4.43-9.851-9.895Z"/><path fill="#C10230" d="M565.56 14.438c0-2.833 2.286-5.128 5.104-5.128s5.106 2.295 5.106 5.128c0 2.832-2.286 5.129-5.106 5.129-2.819 0-5.104-2.296-5.104-5.13Z"/><path fill="#F05328" d="M645.333.001h-58.666V58.96h58.666V.001Z"/><path fill="#F05328" d="M601.659.001h-14.992v.797l14.992 24.471V.001Z"/><path fill="#C10230" d="m608.322 36.145 7.683-13.328-.003-.006-.001.005L602.832 0h-1.173V25.27l6.663 10.876Z"/><path fill="#00AD9C" d="M586.667.798v58.16h14.982v-33.7l.01.017v-.006L586.667.8Z"/><path fill="#F05328" d="M645.333.001h-15.221v25.094l.003-.006v.045L645.333.295V.001Z"/><path fill="#00AD9C" d="M630.115 25.134v33.824h15.218V.295l-15.218 24.84Z"/><path fill="#C10230" d="M630.112.001h-.944l-8.806 15.258-4.357 7.558 7.52 13.043 6.587-10.765V0Z"/><path fill="#53002F" d="m608.322 36.145 1.277 2.082 6.085 9.93h.317l7.523-12.297-7.519-13.043-7.683 13.328ZM821.333 0h-58.669v58.96h58.669V0Z"/><path fill="#F37021" d="M704.001 58.962h58.663V.002h-58.663v58.96ZM765.689 54.423c0-14.43 11.601-26.126 25.916-26.126.124 0 .245 0 .369.004-.004 14.631-11.768 26.49-26.28 26.495-.005-.126-.005-.247-.005-.373Z"/><path fill="#C10230" d="M818.307 54.423c0-14.43-11.601-26.126-25.915-26.126-.126 0-.245 0-.37.004.005 14.631 11.768 26.49 26.281 26.495.004-.126.004-.247.004-.373ZM765.689 30.285c0-14.43 11.602-26.126 25.916-26.126.124 0 .245 0 .369.005-.004 14.63-11.767 26.49-26.28 26.494-.005-.126-.005-.246-.005-.373Z"/><path fill="#F37021" d="M818.307 30.285c0-14.43-11.601-26.126-25.915-26.126-.126 0-.245 0-.37.005.005 14.63 11.768 26.49 26.281 26.494.004-.126.004-.246.004-.373Z"/><path fill="#C10230" d="M762.664 58.96V0c-16.208.29-29.254 13.378-29.254 29.477 0 16.098 13.046 29.192 29.254 29.482v.002ZM733.28 58.96V0c-16.22.292-29.281 13.378-29.281 29.478 0 16.099 13.061 29.192 29.281 29.483Z"/><path fill="#53002F" d="M938.667 0v58.96h58.666V0h-58.666Z"/><path fill="#C10230" d="M938.667 0H880v58.96h58.667V0Z"/><path fill="#F37021" d="m909.333 0 29.334 29.478-29.334 29.483-29.334-29.483L909.333 0Z"/><path fill="#53002F" d="m909.333 9.754-19.636 19.724 19.636 19.724 19.636-19.724-19.636-19.724Z"/><path fill="#00AD9C" d="m909.334 19.43-10.005 10.05 10.005 10.05 10.005-10.05-10.005-10.05Z"/><path fill="#C10230" d="M962.781 3.8c4.999 0 10.001 1.904 13.795 5.715l20.757 20.85V58.96h-26.734l-21.614-21.73c-7.588-7.621-7.588-20.094 0-27.715 3.794-3.81 8.796-5.716 13.796-5.716Z"/><path fill="#53002F" d="M963.209 10.95c6.964 0 12.609 5.671 12.609 12.667 0 6.995-5.645 12.666-12.609 12.666S950.6 30.613 950.6 23.617s5.645-12.666 12.609-12.666Z"/><path fill="#C10230" d="M963.209 17.019c3.627 0 6.568 2.954 6.568 6.598 0 3.644-2.941 6.598-6.568 6.598-3.628 0-6.568-2.954-6.568-6.598 0-3.644 2.94-6.598 6.568-6.598Z"/><path fill="#00AD9C" d="M963.209 20.308a3.3 3.3 0 0 1 3.293 3.307 3.3 3.3 0 0 1-3.293 3.308 3.3 3.3 0 0 1-3.293-3.308 3.3 3.3 0 0 1 3.293-3.307Z"/><path fill="#fff" d="M946.455 49.273a3.292 3.292 0 0 1 3.284 3.3 3.29 3.29 0 0 1-3.284 3.298 3.292 3.292 0 0 1-3.284-3.299 3.291 3.291 0 0 1 3.284-3.299Z"/><path fill="#00AD9C" d="M990.792 3.88a2.924 2.924 0 0 1 2.918 2.93 2.924 2.924 0 0 1-2.918 2.931 2.924 2.924 0 0 1-2.917-2.93 2.924 2.924 0 0 1 2.917-2.931Z"/><path fill="#F37021" d="M992.74 44.156c.702-5.42-3.103-10.384-8.498-11.089-5.395-.705-10.337 3.117-11.039 8.537-.702 5.42 3.103 10.384 8.498 11.089 5.395.705 10.338-3.117 11.039-8.537Z"/><path fill="#C10230" d="M982.962 37.742c2.819 0 5.104 2.295 5.104 5.127 0 2.833-2.285 5.13-5.104 5.13-2.82 0-5.106-2.297-5.106-5.13 0-2.832 2.285-5.127 5.106-5.127Z"/><path fill="#F37021" d="M821.333 58.962h58.666V.002h-58.666v58.96Z"/><path fill="#C10230" d="M851.02 0h28.894v58.96h-58.581V29.39L851.02 0Z"/><path fill="#00AD9C" d="M879.999 0v58.96h-58.666L879.999 0Z"/><path fill="#C10230" d="M863.364 45.88c0-2.465 1.986-4.462 4.436-4.462s4.437 1.997 4.437 4.463c0 2.465-1.987 4.462-4.437 4.462s-4.436-1.997-4.436-4.462Z"/><path fill="#fff" d="M863.364 28.806c0-2.464 1.986-4.463 4.436-4.463s4.437 1.999 4.437 4.463-1.987 4.463-4.437 4.463-4.436-2-4.436-4.463Z"/><path fill="#00AD9C" d="M1056 0h-58.667v58.96H1056V0Z"/><path fill="#F37021" d="M1052.97 4.533c0 14.43-11.6 26.127-25.91 26.127-.12 0-.25 0-.37-.005 0-14.63 11.77-26.49 26.28-26.494v.372Z"/><path fill="#C10230" d="M1000.36 4.533c0 14.43 11.6 26.127 25.91 26.127.13 0 .25 0 .37-.005 0-14.63-11.76-26.49-26.28-26.494v.372ZM1052.97 28.67c0 14.43-11.6 26.126-25.91 26.126-.12 0-.25 0-.37-.005 0-14.63 11.77-26.49 26.28-26.494v.373Z"/><path fill="#F37021" d="M1000.36 28.67c0 14.43 11.6 26.126 25.91 26.126.13 0 .25 0 .37-.005 0-14.63-11.76-26.49-26.28-26.494v.373Z"/><path fill="#53002F" d="M1290.67.001H1232v58.905h58.67V.001Z"/><path fill="#F37021" d="M1173.33 58.905H1232V0h-58.67v58.904ZM1287.64 4.493c0 14.43-11.6 26.127-25.91 26.127-.13 0-.25 0-.37-.005 0-14.631 11.76-26.49 26.28-26.494v.372Z"/><path fill="#C10230" d="M1235.02 4.493c0 14.43 11.6 26.127 25.92 26.127.12 0 .24 0 .37-.005-.01-14.631-11.77-26.49-26.28-26.494-.01.126-.01.246-.01.372ZM1287.64 28.631c0 14.43-11.6 26.126-25.91 26.126-.13 0-.25 0-.37-.004 0-14.631 11.76-26.49 26.28-26.495v.373Z"/><path fill="#F37021" d="M1235.02 28.631c0 14.43 11.6 26.126 25.92 26.126.12 0 .24 0 .37-.004-.01-14.631-11.77-26.49-26.28-26.495-.01.127-.01.247-.01.373Z"/><path fill="#C10230" d="M1232 58.905V0c-16.21.29-29.26 13.338-29.26 29.438s13.05 29.176 29.26 29.467ZM1202.61 58.905V0c-16.22.29-29.28 13.338-29.28 29.438s13.06 29.176 29.28 29.467Z"/><path fill="#00AD9C" d="M1173.33.001h-58.67v58.903h58.67V.001Z"/><path fill="#53002F" d="M1114.66 32.44V0h17.73V32.11c0 8.353 4.59 12.323 11.61 12.323s11.61-3.805 11.61-11.91V0h17.72v32.026c0 18.691-11.61 26.879-29.51 26.879-17.91 0-29.16-8.353-29.16-26.465Z"/><path fill="#F37021" d="M1132.39.001V32.11c0 8.353 4.59 12.323 11.61 12.323s11.61-3.805 11.61-11.91V0h-23.22v.001Z"/><path fill="#53002F" d="M1139.56 27.927c0-2.465 1.99-4.463 4.44-4.463s4.44 1.998 4.44 4.463-1.99 4.463-4.44 4.463-4.44-1.998-4.44-4.463Z"/><path fill="#fff" d="M1139.56 10.852c0-2.464 1.99-4.462 4.44-4.462s4.44 1.998 4.44 4.462c0 2.464-1.99 4.463-4.44 4.463s-4.44-1.999-4.44-4.463Z"/><path fill="#C10230" d="M1408 .001h-58.67v58.905H1408V.001Z"/><path fill="#F37021" d="M1378.67.001 1408 29.44l-29.33 29.466-29.34-29.466L1378.67 0Z"/><path fill="#53002F" d="m1378.67 9.715-19.64 19.725 19.64 19.724 19.63-19.724-19.63-19.725Z"/><path fill="#00AD9C" d="m1378.67 19.389-10.01 10.05 10.01 10.05 10-10.05-10-10.05ZM1114.66.001H1056v58.903h58.66V.001Z"/><path fill="#F05328" d="M1070.99.001H1056l14.99 25.24V0Z"/><path fill="#53002F" d="m1077.66 36.117 7.68-13.328v-.004l-.01.003L1072.16 0h-1.17v25.24l6.67 10.876Z"/><path fill="#C10230" d="M1056 .001v58.903h14.98V25.23l.01.018v-.006L1056 0Z"/><path fill="#F05328" d="M1114.66.001h-15.22v25.066l.01-.006v.047L1114.66 0Z"/><path fill="#C10230" d="M1099.45 25.108v33.797h15.21V0l-15.21 25.107Z"/><path fill="#53002F" d="M1099.44.001h-.94l-8.81 15.23-4.35 7.558 7.52 13.043 6.58-10.765V0Z"/><path fill="#F05328" d="m1077.66 36.117 1.27 2.083 6.09 9.929h.31l7.53-12.297-7.52-13.043-7.68 13.328Z"/><path fill="#F37021" d="M1290.67 58.905h58.66V0h-58.66v58.905Z"/><path fill="#C10230" d="M1320.35.001h28.9v58.903h-58.59V29.348L1320.35.001Z"/><path fill="#00AD9C" d="M1349.33.001v58.903h-58.67L1349.33.001Z"/><path fill="#C10230" d="M1332.7 45.843c0-2.466 1.98-4.463 4.43-4.463 2.45 0 4.44 1.997 4.44 4.463 0 2.465-1.99 4.462-4.44 4.462s-4.43-1.997-4.43-4.462Z"/><path fill="#fff" d="M1332.7 28.768c0-2.464 1.98-4.463 4.43-4.463 2.45 0 4.44 1.999 4.44 4.463s-1.99 4.463-4.44 4.463-4.43-2-4.43-4.463Z"/></svg>