<svg viewBox="0 0 236 64" xmlns="http://www.w3.org/2000/svg" width="236" height="64" fill="none"><g clip-path="url(#clip-foundation)"><path fill="#fff" d="M88.823 55.55H12.97L0 64V0h88.823v55.55Z"/><path fill="#C10230" d="M38.751 43.88V23.1L29.77 36.696h-.185l-8.89-13.46V43.88H13.81V12.048h7.567l8.392 13.46 8.39-13.46h7.568v31.827H38.75v.005ZM62.488 44.378c-8.57 0-13.816-4.777-13.816-14.142V12.048h7.02v18.004c0 5.183 2.597 7.866 6.883 7.866 4.285 0 6.883-2.591 6.883-7.639V12.048h7.02v17.961c0 9.64-5.425 14.369-13.995 14.369h.005Z"/><path fill="#fff" d="M116.568 14.753V5.258l-4.106 6.211h-.082l-4.062-6.151v9.435h-3.146V.206h3.46l3.835 6.15 3.835-6.15h3.461v14.542h-3.19l-.005.005ZM129.337 14.98c-3.917 0-6.314-2.18-6.314-6.46V.207h3.206v8.228c0 2.37 1.188 3.592 3.146 3.592s3.146-1.184 3.146-3.49V.207h3.206v8.207c0 4.403-2.479 6.567-6.396 6.567h.006ZM144.188 14.959c-2.207 0-4.437-.769-6.189-2.327l1.899-2.266c1.312 1.082 2.685 1.763 4.356 1.763 1.312 0 2.104-.52 2.104-1.368v-.044c0-.811-.499-1.228-2.94-1.85-2.94-.747-4.833-1.558-4.833-4.447v-.043c0-2.64 2.126-4.382 5.104-4.382 2.127 0 3.938.665 5.419 1.85l-1.665 2.413c-1.291-.893-2.56-1.434-3.792-1.434-1.231 0-1.876.563-1.876 1.266v.043c0 .958.623 1.266 3.146 1.91 2.956.768 4.627 1.829 4.627 4.366v.043c0 2.889-2.208 4.507-5.354 4.507h-.006ZM152.482 14.753V.206h3.206v14.542h-3.206v.005ZM158.899 14.753v-2.43l8.023-9.31h-7.773V.206h11.895v2.429l-8.022 9.31h8.022v2.803h-12.145v.005ZM174.228 14.753V.206h3.206v14.542h-3.206v.005ZM111.48 35.657c-3.916 0-6.314-2.18-6.314-6.46v-8.31h3.206v8.23c0 2.369 1.188 3.591 3.146 3.591s3.146-1.184 3.146-3.489v-8.331h3.206v8.207c0 4.403-2.479 6.567-6.395 6.567l.005-.005ZM131.376 35.43l-7.062-9.246v9.246h-3.168V20.888h2.956l6.835 8.953v-8.953h3.168V35.43h-2.729ZM137.75 35.43V20.888h3.206V35.43h-3.206ZM152.086 35.532h-2.831l-5.897-14.65h3.542l3.814 10.241 3.813-10.24h3.461l-5.896 14.65h-.006ZM160.228 35.43V20.888h11v2.845h-7.811v2.949h6.873v2.845h-6.873v3.057h7.915v2.846h-11.104ZM177.396 35.43h-3.206V20.888h6.667c3.439 0 5.5 1.807 5.5 4.798v.044c0 2.348-1.27 3.825-3.125 4.506l3.564 5.194h-3.748l-4.931-7.482h2.533c1.563 0 2.458-.833 2.458-2.056v-.043c0-1.37-.96-2.078-2.523-2.078h-3.189V35.43ZM194.439 35.635c-2.208 0-4.437-.768-6.189-2.326l1.898-2.267c1.313 1.082 2.685 1.764 4.356 1.764 1.313 0 2.105-.52 2.105-1.369v-.043c0-.811-.499-1.228-2.94-1.85-2.94-.747-4.833-1.558-4.833-4.447v-.044c0-2.64 2.126-4.382 5.104-4.382 2.126 0 3.938.666 5.419 1.85l-1.666 2.413c-1.291-.892-2.56-1.433-3.791-1.433-1.231 0-1.877.562-1.877 1.266v.043c0 .958.624 1.266 3.146 1.91 2.956.768 4.627 1.828 4.627 4.366v.043c0 2.889-2.208 4.506-5.354 4.506h-.005ZM202.727 35.43V20.888h3.206V35.43h-3.206ZM216.185 23.83v11.594h-3.206V23.831h-4.437v-2.949h12.086v2.949H216.185ZM230.397 29.63v5.8h-3.206v-5.735l-5.603-8.807h3.748l3.477 5.837 3.542-5.837H236l-5.603 8.748v-.006ZM106.219 42.295v5.8h7.962v.941h-7.962v6.357h-1.047V41.354h9.915v.941h-8.868ZM126.994 52.326a5.271 5.271 0 0 1-1.107 1.704 5.256 5.256 0 0 1-1.681 1.174 5.134 5.134 0 0 1-2.111.432 5.044 5.044 0 0 1-2.099-.432 5.44 5.44 0 0 1-1.66-1.153 5.168 5.168 0 0 1-1.095-1.682 5.39 5.39 0 0 1-.391-2.045v-.038c0-.72.13-1.407.391-2.045a5.251 5.251 0 0 1 1.106-1.704 5.346 5.346 0 0 1 1.682-1.174 5.124 5.124 0 0 1 2.11-.433 5.04 5.04 0 0 1 2.099.433c.635.287 1.188.67 1.66 1.152a5.17 5.17 0 0 1 1.096 1.683c.26.644.39 1.325.39 2.045v.038c0 .72-.13 1.406-.39 2.045Zm-.657-2.045c0-.612-.108-1.19-.325-1.726a4.303 4.303 0 0 0-.901-1.407 4.173 4.173 0 0 0-3.021-1.282 4.144 4.144 0 0 0-3.021 1.288 4.248 4.248 0 0 0-.868 1.39 4.66 4.66 0 0 0-.315 1.699v.038c0 .611.109 1.19.326 1.725.217.541.515 1.007.9 1.407.385.4.835.714 1.356.936.521.227 1.074.34 1.665.34.592 0 1.167-.113 1.687-.35a4.232 4.232 0 0 0 1.335-.937c.369-.395.662-.855.868-1.39.211-.53.314-1.098.314-1.699v-.038.006ZM137.761 55.393v-1.904a4.78 4.78 0 0 1-1.411 1.525c-.591.417-1.356.622-2.294.622-.645 0-1.22-.103-1.73-.308a3.585 3.585 0 0 1-2.1-2.207 5.133 5.133 0 0 1-.271-1.694v-6.259h.987v6.075c0 1.055.283 1.905.847 2.538.564.633 1.367.952 2.413.952.494 0 .961-.092 1.4-.27a3.457 3.457 0 0 0 1.134-.753c.32-.319.575-.703.754-1.152.179-.449.271-.941.271-1.471v-5.919h.987v10.23h-.987v-.005ZM149.944 55.393v-6.076c0-1.055-.282-1.904-.846-2.537-.565-.633-1.367-.952-2.414-.952-.51 0-.977.092-1.411.27a3.56 3.56 0 0 0-1.128.752c-.325.32-.575.704-.754 1.153-.179.449-.271.941-.271 1.471v5.919h-.987v-10.23h.987v1.904c.347-.6.819-1.11 1.41-1.526.592-.416 1.356-.622 2.295-.622.645 0 1.22.103 1.73.314.51.205.944.497 1.296.87.353.374.624.818.803 1.337.179.514.271 1.082.271 1.693v6.26h-.987.006ZM162.783 55.393v-2.289a9.029 9.029 0 0 1-.754.963c-.277.309-.58.574-.922.801a4.78 4.78 0 0 1-1.145.552 4.41 4.41 0 0 1-1.399.21 4.786 4.786 0 0 1-1.823-.362 5.023 5.023 0 0 1-1.6-1.044c-.472-.454-.846-1.011-1.134-1.677-.287-.66-.433-1.406-.433-2.234v-.038c0-.828.146-1.574.433-2.234a5.334 5.334 0 0 1 1.134-1.683 5.088 5.088 0 0 1 1.6-1.066 4.7 4.7 0 0 1 1.823-.373 4.7 4.7 0 0 1 1.41.2 4.54 4.54 0 0 1 1.156.541c.341.228.65.487.927.785.277.292.521.6.732.925v-6.622h.988v14.645h-.993Zm.06-5.134c0-.655-.12-1.255-.353-1.796-.233-.541-.548-1.001-.938-1.385a4.311 4.311 0 0 0-1.34-.893 4.015 4.015 0 0 0-1.562-.32 4.17 4.17 0 0 0-1.584.304c-.488.2-.917.487-1.28.86a3.963 3.963 0 0 0-.857 1.374 5.1 5.1 0 0 0-.315 1.834v.038c0 .67.108 1.277.32 1.823.217.547.51 1.012.879 1.396a3.932 3.932 0 0 0 2.831 1.19c.537 0 1.058-.108 1.562-.319a4.14 4.14 0 0 0 1.34-.904c.391-.389.7-.849.939-1.384a4.43 4.43 0 0 0 .352-1.786v-.038l.006.006ZM174.223 55.393v-1.704a5.356 5.356 0 0 1-.635.714 4.21 4.21 0 0 1-.857.622c-.32.179-.689.33-1.095.444a4.994 4.994 0 0 1-1.34.173 5.11 5.11 0 0 1-1.427-.2 4.224 4.224 0 0 1-1.269-.6 3.182 3.182 0 0 1-.917-1.002c-.233-.4-.352-.87-.352-1.406v-.038c0-.536.108-1.012.33-1.423.223-.416.527-.763.917-1.044.391-.281.857-.492 1.41-.644a7.11 7.11 0 0 1 1.828-.222c.722 0 1.346.038 1.872.12.526.08 1.03.189 1.529.319v-.439c0-1.038-.298-1.812-.895-2.331-.596-.52-1.426-.78-2.484-.78-.629 0-1.209.076-1.73.233a8.914 8.914 0 0 0-1.486.59l-.364-.866a10.166 10.166 0 0 1 1.709-.654 7.112 7.112 0 0 1 1.931-.244c1.329 0 2.376.336 3.135 1.001.759.666 1.145 1.672 1.145 3.008v6.378h-.966l.011-.005Zm.022-4.993a19.74 19.74 0 0 0-1.508-.309 11.848 11.848 0 0 0-1.969-.151c-1.085 0-1.921.216-2.506.649-.586.433-.874 1.006-.874 1.726v.038c0 .373.082.703.239.99.163.286.38.53.656.73.277.2.592.352.955.46.363.108.738.162 1.128.162.521 0 1.02-.076 1.486-.227a4.103 4.103 0 0 0 1.237-.639c.353-.27.635-.6.846-.99.207-.384.315-.811.315-1.276v-1.158l-.005-.005ZM182.451 55.485c-.26.06-.553.092-.873.092-.401 0-.776-.054-1.128-.163a2.401 2.401 0 0 1-.917-.513 2.421 2.421 0 0 1-.613-.882c-.146-.352-.222-.774-.222-1.255v-6.698h-1.486v-.903h1.486v-3.268h.987v3.268h3.602v.903h-3.602v6.584c0 .736.19 1.25.575 1.542.38.292.873.438 1.481.438.255 0 .493-.027.721-.076.228-.048.488-.14.787-.265v.925a4.303 4.303 0 0 1-.792.27h-.006ZM185.63 42.495v-1.341h1.226v1.341h-1.226Zm.12 12.898v-10.23h.987v10.23h-.987ZM199.641 52.326a5.239 5.239 0 0 1-1.107 1.704 5.256 5.256 0 0 1-1.681 1.174 5.13 5.13 0 0 1-2.11.432 5.038 5.038 0 0 1-2.099-.432 5.428 5.428 0 0 1-1.66-1.153 5.17 5.17 0 0 1-1.096-1.682 5.41 5.41 0 0 1-.39-2.045v-.038c0-.72.13-1.407.39-2.045a5.342 5.342 0 0 1 2.788-2.878 5.128 5.128 0 0 1 2.11-.433c.765 0 1.465.146 2.1.433.634.287 1.187.67 1.659 1.152a5.154 5.154 0 0 1 1.096 1.683 5.41 5.41 0 0 1 .391 2.045v.038a5.39 5.39 0 0 1-.391 2.045Zm-.656-2.045c0-.612-.109-1.19-.326-1.726a4.317 4.317 0 0 0-.9-1.407 4.184 4.184 0 0 0-1.356-.941 4.114 4.114 0 0 0-1.666-.34 4.148 4.148 0 0 0-3.021 1.288 4.248 4.248 0 0 0-.868 1.389 4.66 4.66 0 0 0-.314 1.699v.038c0 .611.108 1.19.325 1.725.217.541.515 1.007.901 1.407.385.4.835.714 1.356.936.52.227 1.074.34 1.665.34s1.166-.113 1.687-.35a4.227 4.227 0 0 0 1.334-.937c.369-.395.662-.855.868-1.39.212-.53.315-1.098.315-1.699v-.038.006ZM210.582 55.393v-6.076c0-1.055-.282-1.904-.846-2.537-.565-.633-1.367-.952-2.414-.952-.51 0-.977.092-1.411.27a3.56 3.56 0 0 0-1.128.752c-.325.32-.575.704-.754 1.153-.179.449-.271.941-.271 1.471v5.919h-.987v-10.23h.987v1.904c.347-.6.819-1.11 1.41-1.526.592-.416 1.356-.622 2.295-.622.645 0 1.22.103 1.73.314.51.205.944.497 1.297.87.352.374.623.818.802 1.337.179.514.272 1.082.272 1.693v6.26h-.988.006Z"/></g><defs><clipPath id="clip-foundation"><path fill="#fff" d="M0 0h236v64H0z"/></clipPath></defs></svg>