<svg viewBox="0 0 202 64" xmlns="http://www.w3.org/2000/svg" width="202" height="64" fill="none"><path fill="#fff" d="M88.724 55.547h-75.77L0 64V0h88.724v55.547Z"/><path fill="#C10230" d="M38.708 43.878v-20.78l-8.973 13.597h-.183l-8.88-13.459v20.642h-6.877V12.051h7.558l8.382 13.46 8.38-13.46h7.56v31.832h-6.967v-.005ZM62.419 44.38c-8.56 0-13.8-4.775-13.8-14.143V12.05h7.011V30.06c0 5.184 2.594 7.867 6.878 7.867 4.284 0 6.877-2.59 6.877-7.64V12.05h7.011v17.96c0 9.638-5.418 14.369-13.982 14.369h.005Z"/><path fill="#fff" d="M107.731 13.564V4.88l-3.749 5.68h-.077l-3.711-5.623v8.627h-2.876V.264h3.157l3.5 5.622 3.501-5.622h3.156v13.3h-2.914.013ZM119.393 13.774c-3.577 0-5.764-1.992-5.764-5.908V.271h2.927v7.525c0 2.165 1.084 3.285 2.875 3.285 1.792 0 2.876-1.082 2.876-3.19V.278h2.927v7.506c0 4.03-2.264 6.004-5.841 6.004v-.013ZM132.955 13.755c-2.014 0-4.055-.7-5.649-2.126l1.734-2.07c1.199.988 2.455 1.618 3.979 1.618 1.199 0 1.92-.478 1.92-1.254v-.039c0-.738-.46-1.12-2.685-1.693-2.684-.681-4.412-1.426-4.412-4.068v-.039c0-2.413 1.938-4.01 4.661-4.01 1.938 0 3.596.604 4.948 1.693l-1.524 2.203c-1.18-.815-2.34-1.312-3.462-1.312-1.123 0-1.716.516-1.716 1.159v.038c0 .872.574 1.159 2.876 1.751 2.704.7 4.221 1.674 4.221 3.992v.038c0 2.642-2.015 4.12-4.891 4.12ZM140.531 13.564V.264h2.926v13.3h-2.926ZM146.39 13.564v-2.222l7.327-8.512h-7.097V.264h10.865v2.222l-7.326 8.512h7.326v2.566H146.39ZM160.387 13.564V.264h2.926v13.3h-2.926ZM107.412 34.53v-6.163h-8.43v6.163h-.981V21.383h.982v6.105h8.429v-6.105h.976V34.53h-.976ZM112.794 31.703c.229.458.51.853.848 1.178.338.325.727.573 1.16.739.434.165.893.254 1.371.254.753 0 1.39-.146 1.913-.433a5.552 5.552 0 0 0 1.384-1.07l.637.56a6.614 6.614 0 0 1-1.67 1.306c-.625.344-1.39.516-2.309.516-.631 0-1.23-.121-1.798-.357a4.506 4.506 0 0 1-1.511-1.012 4.73 4.73 0 0 1-1.026-1.58 5.428 5.428 0 0 1-.377-2.05v-.037a5.3 5.3 0 0 1 .351-1.942 5.02 5.02 0 0 1 .957-1.585 4.5 4.5 0 0 1 1.441-1.07 4.177 4.177 0 0 1 1.804-.395c.65 0 1.288.127 1.824.382a4.041 4.041 0 0 1 1.383 1.063c.383.452.676.98.887 1.586.21.604.312 1.267.312 1.98v.203c0 .039 0 .096-.019.172h-7.958c.039.599.172 1.127.396 1.592Zm6.606-2.413a5.375 5.375 0 0 0-.294-1.4 3.832 3.832 0 0 0-.663-1.185 3.18 3.18 0 0 0-1.046-.827c-.414-.21-.899-.313-1.453-.313a3.281 3.281 0 0 0-2.423 1.057 4.385 4.385 0 0 0-1.123 2.661h7.002v.007ZM129.512 34.53v-1.598a5.562 5.562 0 0 1-.593.669 3.913 3.913 0 0 1-.797.579c-.3.172-.644.306-1.027.414-.382.108-.797.159-1.249.159-.453 0-.899-.064-1.333-.185a3.721 3.721 0 0 1-1.186-.566 2.94 2.94 0 0 1-.854-.943 2.59 2.59 0 0 1-.332-1.317v-.039c0-.503.102-.942.313-1.33.204-.389.491-.713.854-.975a3.926 3.926 0 0 1 1.32-.598 6.529 6.529 0 0 1 1.715-.204c.676 0 1.263.038 1.747.115.491.076.963.178 1.429.3v-.415c0-.974-.281-1.7-.836-2.183-.561-.484-1.332-.726-2.321-.726-.586 0-1.128.07-1.619.216a8.09 8.09 0 0 0-1.39.554l-.338-.809a9.813 9.813 0 0 1 1.6-.61 6.63 6.63 0 0 1 1.805-.23c1.243 0 2.219.312 2.933.942.714.624 1.071 1.567 1.071 2.82v5.973h-.905l-.007-.013Zm.019-4.68a20.371 20.371 0 0 0-1.409-.292 10.692 10.692 0 0 0-1.843-.14c-1.014 0-1.798.203-2.34.61-.548.408-.816.943-.816 1.618v.038c0 .35.077.656.223.923.153.268.357.497.612.682.255.184.555.33.893.433.338.102.689.152 1.052.152.491 0 .957-.07 1.39-.216.44-.147.823-.344 1.154-.599.332-.254.593-.566.791-.923.191-.363.293-.757.293-1.197v-1.088ZM133.619 34.53V20.816h.924V34.53h-.924ZM141.755 34.613a3.57 3.57 0 0 1-.816.083 3.5 3.5 0 0 1-1.052-.153 2.309 2.309 0 0 1-.855-.478 2.292 2.292 0 0 1-.573-.827c-.141-.331-.204-.726-.204-1.172V25.79h-1.39v-.847h1.39v-3.063h.924v3.063h3.367v.847h-3.367v6.169c0 .688.179 1.172.536 1.445.357.274.816.414 1.383.414.236 0 .466-.025.676-.07a3.85 3.85 0 0 0 .734-.248v.866a3.851 3.851 0 0 1-.746.254l-.007-.006ZM152.148 34.53v-5.692c0-.987-.261-1.783-.79-2.375-.529-.592-1.282-.891-2.257-.891-.479 0-.919.083-1.32.255a3.21 3.21 0 0 0-1.76 1.789c-.166.42-.255.878-.255 1.381v5.54h-.925V20.821h.925v5.915a4.397 4.397 0 0 1 1.32-1.426c.554-.389 1.269-.586 2.142-.586.599 0 1.141.096 1.62.293.478.197.88.465 1.211.815.332.35.58.77.753 1.248.172.484.255 1.012.255 1.585v5.864h-.925.006ZM173.069 30.545a6.102 6.102 0 0 1-1.441 2.088 6.758 6.758 0 0 1-2.219 1.388c-.861.337-1.805.51-2.831.51h-4.387V21.382h4.387c1.026 0 1.97.165 2.831.496.861.331 1.6.79 2.219 1.382a6.15 6.15 0 0 1 1.441 2.076c.338.795.51 1.655.51 2.585v.038c0 .93-.172 1.789-.51 2.591v-.006Zm-.504-2.592c0-.776-.14-1.515-.421-2.203a5.508 5.508 0 0 0-1.192-1.808 5.6 5.6 0 0 0-1.881-1.222c-.74-.3-1.569-.452-2.481-.452h-3.405v11.384h3.405c.919 0 1.741-.147 2.481-.446a5.656 5.656 0 0 0 1.881-1.203 5.273 5.273 0 0 0 1.192-1.79c.281-.68.421-1.42.421-2.215v-.045ZM182.965 34.53v-1.598a5.65 5.65 0 0 1-.593.669 3.94 3.94 0 0 1-.797.579c-.3.172-.644.306-1.027.414-.382.108-.797.159-1.249.159-.453 0-.9-.064-1.333-.185a3.71 3.71 0 0 1-1.186-.566 2.954 2.954 0 0 1-.855-.943 2.6 2.6 0 0 1-.331-1.317v-.039c0-.503.102-.942.312-1.33a2.78 2.78 0 0 1 .855-.975 3.926 3.926 0 0 1 1.32-.598 6.529 6.529 0 0 1 1.715-.204c.676 0 1.262.038 1.747.115.491.076.963.178 1.428.3v-.415c0-.974-.28-1.7-.835-2.183-.561-.484-1.333-.726-2.321-.726-.587 0-1.129.07-1.62.216a8.122 8.122 0 0 0-1.39.554l-.338-.809a9.858 9.858 0 0 1 1.601-.61 6.627 6.627 0 0 1 1.804-.23c1.244 0 2.219.312 2.933.942.715.624 1.072 1.567 1.072 2.82v5.973h-.906l-.006-.013Zm.019-4.68a20.622 20.622 0 0 0-1.409-.292 10.692 10.692 0 0 0-1.843-.14c-1.014 0-1.798.203-2.34.61-.548.408-.816.943-.816 1.618v.038c0 .35.076.656.223.923.153.268.357.497.612.682.255.184.555.33.893.433.338.102.688.152 1.052.152.491 0 .956-.07 1.39-.216.44-.147.822-.344 1.154-.599.332-.254.593-.566.791-.923.191-.363.293-.757.293-1.197v-1.088ZM190.731 34.613a3.57 3.57 0 0 1-.816.083 3.5 3.5 0 0 1-1.052-.153 2.297 2.297 0 0 1-.854-.478 2.282 2.282 0 0 1-.574-.827c-.141-.331-.204-.726-.204-1.172V25.79h-1.39v-.847h1.39v-3.063h.924v3.063h3.367v.847h-3.367v6.169c0 .688.179 1.172.536 1.445.357.274.816.414 1.383.414.236 0 .466-.025.676-.07a3.85 3.85 0 0 0 .734-.248v.866a3.851 3.851 0 0 1-.746.254l-.007-.006ZM200.589 34.53v-1.598a5.562 5.562 0 0 1-.593.669 3.913 3.913 0 0 1-.797.579c-.3.172-.644.306-1.026.414-.383.108-.798.159-1.25.159-.453 0-.899-.064-1.333-.185a3.721 3.721 0 0 1-1.186-.566 2.94 2.94 0 0 1-.854-.943 2.59 2.59 0 0 1-.332-1.317v-.039c0-.503.102-.942.313-1.33.204-.389.491-.713.854-.975a3.926 3.926 0 0 1 1.32-.598 6.529 6.529 0 0 1 1.715-.204c.676 0 1.263.038 1.747.115.491.076.963.178 1.429.3v-.415c0-.974-.281-1.7-.836-2.183-.561-.484-1.332-.726-2.321-.726-.586 0-1.128.07-1.619.216a8.09 8.09 0 0 0-1.39.554l-.338-.809a9.813 9.813 0 0 1 1.6-.61 6.635 6.635 0 0 1 1.805-.23c1.243 0 2.219.312 2.933.942.714.624 1.071 1.567 1.071 2.82v5.973h-.905l-.007-.013Zm.019-4.68a20.371 20.371 0 0 0-1.409-.292 10.692 10.692 0 0 0-1.843-.14c-1.013 0-1.798.203-2.34.61-.548.408-.816.943-.816 1.618v.038c0 .35.077.656.223.923.153.268.357.497.612.682.255.184.555.33.893.433.338.102.689.152 1.052.152.491 0 .957-.07 1.39-.216.44-.147.823-.344 1.154-.599.332-.254.593-.566.791-.923.191-.363.293-.757.293-1.197v-1.088ZM98.135 54.904V41.756h.975v13.148h-.975ZM110.071 54.904v-5.692c0-.987-.262-1.783-.791-2.375-.529-.592-1.281-.891-2.257-.891-.478 0-.918.083-1.32.255a3.22 3.22 0 0 0-1.76 1.789c-.166.42-.255.878-.255 1.381v5.54h-.924v-9.583h.924v1.783a4.396 4.396 0 0 1 1.32-1.426c.555-.389 1.269-.586 2.143-.586.599 0 1.141.096 1.619.293.478.197.88.465 1.212.815.331.35.58.77.752 1.248.172.484.255 1.012.255 1.585v5.864h-.924.006ZM120.177 53.452a2.473 2.473 0 0 1-.707.879c-.3.242-.651.433-1.053.56a4.089 4.089 0 0 1-1.3.198 6.064 6.064 0 0 1-2.111-.395c-.701-.261-1.313-.599-1.824-1.019l.549-.732a6.49 6.49 0 0 0 1.658.93 5.04 5.04 0 0 0 1.785.33c.65 0 1.199-.159 1.645-.49.446-.324.67-.77.67-1.33v-.039c0-.273-.07-.509-.211-.713a1.924 1.924 0 0 0-.561-.522 3.646 3.646 0 0 0-.81-.375c-.299-.102-.618-.198-.956-.3-.389-.114-.778-.229-1.173-.356a4.922 4.922 0 0 1-1.065-.478 2.494 2.494 0 0 1-.765-.72c-.198-.286-.294-.642-.294-1.069v-.038c0-.388.077-.739.236-1.057.16-.318.37-.598.651-.834.28-.235.605-.42.994-.554a3.926 3.926 0 0 1 1.282-.197 5.96 5.96 0 0 1 1.779.286 6.004 6.004 0 0 1 1.626.783l-.491.77a6.267 6.267 0 0 0-1.422-.693 4.77 4.77 0 0 0-1.53-.261c-.663 0-1.193.159-1.588.477-.395.319-.593.713-.593 1.19v.04c0 .26.077.49.223.68.153.191.351.357.593.497.243.14.529.261.855.363.325.108.656.21.994.312.389.114.772.235 1.148.363.376.133.714.299 1.014.503.3.203.542.452.727.738.185.287.274.643.274 1.07v.038c0 .427-.083.809-.255 1.153l.006.012ZM127.204 54.986a3.571 3.571 0 0 1-.816.083 3.5 3.5 0 0 1-1.052-.153 2.295 2.295 0 0 1-.854-.477 2.281 2.281 0 0 1-.574-.828c-.141-.33-.204-.726-.204-1.171v-6.278h-1.39v-.847h1.39v-3.062h.924v3.062h3.367v.847h-3.367v6.17c0 .687.179 1.171.536 1.445.357.274.816.414 1.383.414.236 0 .466-.026.676-.07.211-.045.459-.128.734-.249v.866a3.85 3.85 0 0 1-.746.255l-.007-.007ZM130.252 42.826v-1.26h1.148v1.26h-1.148Zm.115 12.078v-9.582h.924v9.582h-.924ZM138.503 54.986a3.577 3.577 0 0 1-.816.083c-.377 0-.727-.05-1.052-.153a2.292 2.292 0 0 1-.855-.477 2.306 2.306 0 0 1-.574-.828c-.14-.33-.204-.726-.204-1.171v-6.278h-1.39v-.847h1.39v-3.062h.925v3.062h3.366v.847h-3.366v6.17c0 .687.178 1.171.535 1.445.357.274.817.414 1.384.414.236 0 .466-.026.676-.07.21-.045.459-.128.733-.249v.866a3.806 3.806 0 0 1-.746.255l-.006-.007ZM148.807 54.904V53.12a4.396 4.396 0 0 1-1.32 1.426c-.555.389-1.269.58-2.142.58-.6 0-1.142-.096-1.62-.293a3.368 3.368 0 0 1-1.212-.815 3.486 3.486 0 0 1-.752-1.248 4.702 4.702 0 0 1-.255-1.585v-5.864h.925v5.692c0 .986.261 1.782.79 2.374.529.593 1.282.892 2.257.892.466 0 .899-.083 1.308-.255a3.2 3.2 0 0 0 1.064-.706c.3-.3.536-.663.708-1.083.172-.42.255-.878.255-1.381v-5.54h.925v9.582h-.925l-.006.007ZM156.892 54.986a3.571 3.571 0 0 1-.816.083 3.5 3.5 0 0 1-1.052-.153 2.307 2.307 0 0 1-.855-.477 2.291 2.291 0 0 1-.573-.828c-.141-.33-.204-.726-.204-1.171v-6.278h-1.391v-.847h1.391v-3.062h.924v3.062h3.367v.847h-3.367v6.17c0 .687.179 1.171.536 1.445.357.274.816.414 1.383.414.236 0 .466-.026.676-.07.211-.045.459-.128.734-.249v.866a3.837 3.837 0 0 1-.747.255l-.006-.007ZM160.387 52.077c.229.459.51.853.848 1.178.337.325.726.573 1.16.738.434.166.893.255 1.371.255.752 0 1.39-.146 1.913-.433a5.529 5.529 0 0 0 1.383-1.07l.638.56a6.63 6.63 0 0 1-1.67 1.306c-.625.344-1.391.516-2.309.516-.631 0-1.23-.121-1.798-.357a4.506 4.506 0 0 1-1.511-1.012 4.734 4.734 0 0 1-1.027-1.579 5.448 5.448 0 0 1-.376-2.05v-.038c0-.688.115-1.337.351-1.942.229-.605.555-1.14.956-1.586a4.51 4.51 0 0 1 1.441-1.07 4.183 4.183 0 0 1 1.805-.394c.65 0 1.288.128 1.824.382a4.041 4.041 0 0 1 1.383 1.063c.383.452.676.98.886 1.586.211.604.313 1.267.313 1.98v.203c0 .039 0 .096-.019.172h-7.958c.038.599.172 1.127.396 1.592Zm6.599-2.413a5.375 5.375 0 0 0-.293-1.4 3.873 3.873 0 0 0-.663-1.185 3.2 3.2 0 0 0-1.046-.828c-.415-.21-.899-.311-1.454-.311-.478 0-.925.095-1.339.28a3.291 3.291 0 0 0-1.084.776 4.307 4.307 0 0 0-.765 1.185 4.362 4.362 0 0 0-.357 1.477h7.001v.006Z"/></svg>