<svg viewBox="0 0 220 56" xmlns="http://www.w3.org/2000/svg" width="220" height="56" fill="none"><g clip-path="url(#clip-university)"><path fill="#fff" d="M77.668 48.606H11.341L0 56V0h77.668v48.606Z"/><path fill="#C10230" d="M33.885 38.395V20.213L26.03 32.109h-.161L18.095 20.33v18.064h-6.019V10.542h6.617L26.03 22.32l7.338-11.778h6.616v27.849h-6.1v.004ZM54.64 38.83c-7.493 0-12.08-4.18-12.08-12.373V10.542h6.138v15.754c0 4.535 2.271 6.883 6.019 6.883 3.747 0 6.019-2.268 6.019-6.684V10.542h6.137v15.716c0 8.436-4.743 12.573-12.237 12.573h.005Z"/><path fill="#fff" d="M103.115 14.447V5.15l-4.017 6.083h-.08l-3.975-6.021v9.24h-3.079V.204h3.387l3.752 6.02 3.751-6.02h3.387v14.243h-3.126ZM115.613 14.67c-3.832 0-6.175-2.135-6.175-6.33V.205h3.14V8.26c0 2.32 1.162 3.522 3.078 3.522s3.078-1.16 3.078-3.418V.204h3.14V8.24c0 4.313-2.428 6.429-6.261 6.429ZM130.151 14.65c-2.163 0-4.345-.752-6.057-2.276l1.855-2.22c1.285 1.06 2.632 1.728 4.259 1.728 1.285 0 2.059-.507 2.059-1.345v-.042c0-.796-.489-1.203-2.875-1.813-2.874-.734-4.729-1.525-4.729-4.355v-.043c0-2.585 2.078-4.293 4.995-4.293 2.077 0 3.851.653 5.303 1.813l-1.632 2.362c-1.266-.876-2.509-1.406-3.709-1.406-1.2 0-1.836.549-1.836 1.24v.043c0 .937.612 1.24 3.079 1.87 2.893.752 4.525 1.789 4.525 4.274v.043c0 2.826-2.163 4.416-5.242 4.416l.005.005ZM138.262 14.447V.204h3.14v14.243h-3.14ZM144.542 14.447v-2.38l7.85-9.118h-7.604V.204h11.64v2.38l-7.85 9.118h7.85v2.745h-11.886ZM159.549 14.447V.204h3.14v14.243h-3.14ZM98.14 34.92c-3.833 0-6.176-2.134-6.176-6.328v-8.138h3.14v8.057c0 2.32 1.162 3.522 3.079 3.522 1.916 0 3.078-1.16 3.078-3.418v-8.16h3.14v8.037c0 4.313-2.429 6.429-6.261 6.429ZM117.61 34.694l-6.91-9.056v9.055h-3.098V20.45h2.894l6.687 8.771V20.45h3.098v14.244h-2.671ZM123.848 34.694V20.45h3.139v14.244h-3.139ZM137.878 34.798h-2.775l-5.768-14.344h3.468l3.732 10.031 3.733-10.03h3.387l-5.768 14.343h-.009ZM145.851 34.694V20.45h10.767v2.788h-7.646v2.887h6.73v2.789h-6.73v2.991h7.745v2.788h-10.866ZM162.646 34.694h-3.14V20.45h6.527c3.363 0 5.383 1.77 5.383 4.7v.043c0 2.3-1.242 3.744-3.059 4.416l3.486 5.09h-3.671l-4.824-7.324h2.481c1.527 0 2.405-.814 2.405-2.016v-.043c0-1.344-.94-2.035-2.467-2.035h-3.121v11.413ZM179.328 34.897c-2.163 0-4.345-.753-6.057-2.277l1.854-2.22c1.286 1.06 2.633 1.728 4.26 1.728 1.285 0 2.058-.507 2.058-1.345v-.042c0-.795-.488-1.203-2.874-1.813-2.874-.734-4.729-1.524-4.729-4.355v-.043c0-2.584 2.077-4.293 4.994-4.293 2.078 0 3.852.653 5.303 1.813l-1.631 2.362c-1.267-.876-2.509-1.406-3.709-1.406-1.2 0-1.836.549-1.836 1.24v.043c0 .937.612 1.24 3.078 1.87 2.894.752 4.525 1.789 4.525 4.274v.043c0 2.83-2.163 4.416-5.241 4.416l.005.005ZM187.439 34.694V20.45h3.139v14.244h-3.139ZM200.61 23.342v11.356h-3.14V23.342h-4.344v-2.888h11.824v2.888h-4.345.005ZM214.517 29.018v5.675h-3.14V29.08l-5.483-8.63h3.671l3.406 5.719 3.467-5.718h3.567l-5.483 8.568h-.005ZM96.333 46.959c0 1.065-.75 1.737-1.864 1.737h-2.51v-6.372h2.49c1.02 0 1.656.635 1.656 1.572s-.645 1.344-.925 1.439v.019c.531.123 1.153.568 1.153 1.605ZM94.35 42.83h-1.816v2.315h1.788c.778 0 1.21-.47 1.21-1.18s-.47-1.14-1.182-1.14v.005Zm1.404 4.085c0-.871-.508-1.288-1.366-1.288h-1.855v2.58h1.95c.759 0 1.271-.459 1.271-1.287v-.005ZM101.507 46.57h-3.585c.047 1.037.645 1.68 1.584 1.68.873 0 1.318-.487 1.404-.989h.569c-.142.824-.825 1.487-1.992 1.487-1.357 0-2.144-.933-2.144-2.3 0-1.369.877-2.334 2.134-2.334s2.03.885 2.03 2.3v.161-.005Zm-3.566-.43h2.997c-.076-1-.607-1.544-1.451-1.544-.844 0-1.442.587-1.546 1.544ZM105.013 48.615c-.166.086-.441.133-.731.133-.972 0-1.527-.535-1.527-1.458v-2.637h-.712v-.497h.74v-1.382h.536v1.382h1.585v.478h-1.585v2.656c0 .587.271.96 1.02.96.223 0 .451-.047.645-.132l.029.497ZM108.542 48.615c-.167.086-.442.133-.731.133-.972 0-1.527-.535-1.527-1.458v-2.637h-.712v-.497h.74v-1.382h.536v1.382h1.584v.478h-1.584v2.656c0 .587.271.96 1.02.96.223 0 .451-.047.645-.132l.029.497ZM113.209 46.57h-3.586c.047 1.037.645 1.68 1.584 1.68.873 0 1.319-.487 1.404-.989h.569c-.142.824-.825 1.487-1.992 1.487-1.356 0-2.144-.933-2.144-2.3 0-1.369.878-2.334 2.135-2.334 1.257 0 2.03.885 2.03 2.3v.161-.005Zm-3.567-.43h2.998c-.076-1-.608-1.544-1.452-1.544s-1.442.587-1.546 1.544ZM116.448 44.137v.55c-.038-.02-.123-.029-.289-.029-.74 0-1.219.805-1.219 1.572v2.466h-.56v-4.54h.536l.019.904c.204-.525.617-.951 1.262-.951.123 0 .204.019.251.028ZM123.302 44.156l-1.76 4.54-.27.691c-.346.904-.768 1.226-1.47 1.226-.233 0-.508-.047-.626-.104l.047-.507c.133.057.299.095.479.095.46 0 .797-.16 1.039-.767l.204-.487-1.817-4.692h.636l1.366 3.655.104.317h.019a1.55 1.55 0 0 1 .085-.317l1.385-3.654h.579v.004ZM128.15 46.419c0 1.382-.873 2.324-2.192 2.324-1.318 0-2.182-.904-2.182-2.29 0-1.388.878-2.344 2.182-2.344 1.305 0 2.192.923 2.192 2.305v.005Zm-3.795.019c0 1.084.645 1.813 1.598 1.813.954 0 1.613-.73 1.613-1.813 0-1.084-.635-1.842-1.613-1.842-.977 0-1.598.748-1.598 1.842ZM132.954 44.156v4.54h-.536l-.028-.795c-.28.487-.797.842-1.508.842-1.001 0-1.618-.653-1.618-1.67v-2.917h.569v2.831c0 .786.451 1.26 1.2 1.26.826 0 1.347-.626 1.347-1.345v-2.746h.574ZM146.567 46.959c0 1.065-.749 1.737-1.864 1.737h-2.509v-6.372h2.49c1.02 0 1.655.635 1.655 1.572s-.645 1.344-.925 1.439v.019c.536.123 1.153.568 1.153 1.605Zm-1.983-4.128h-1.816v2.315h1.788c.778 0 1.209-.47 1.209-1.18s-.469-1.14-1.181-1.14v.005Zm1.404 4.085c0-.871-.507-1.288-1.366-1.288h-1.854v2.58h1.949c.759 0 1.271-.459 1.271-1.287v-.005ZM151.737 46.57h-3.586c.048 1.037.645 1.68 1.584 1.68.873 0 1.319-.487 1.404-.989h.57c-.143.824-.826 1.487-1.992 1.487-1.357 0-2.144-.933-2.144-2.3 0-1.369.877-2.334 2.134-2.334s2.03.885 2.03 2.3v.161-.005Zm-3.567-.43h2.998c-.076-1-.607-1.544-1.451-1.544-.845 0-1.442.587-1.547 1.544ZM155.247 48.615c-.171.086-.441.133-.73.133-.973 0-1.528-.535-1.528-1.458v-2.637h-.711v-.497h.74v-1.382h.531v1.382h1.584v.478h-1.584v2.656c0 .587.27.96 1.02.96.223 0 .45-.047.645-.132l.028.497h.005ZM158.776 48.615c-.171.086-.441.133-.731.133-.972 0-1.527-.535-1.527-1.458v-2.637h-.711v-.497h.74v-1.382h.531v1.382h1.584v.478h-1.584v2.656c0 .587.27.96 1.02.96.223 0 .45-.047.645-.132l.028.497h.005ZM163.443 46.57h-3.586c.048 1.037.645 1.68 1.584 1.68.873 0 1.319-.487 1.404-.989h.57c-.143.824-.826 1.487-1.992 1.487-1.357 0-2.144-.933-2.144-2.3 0-1.369.877-2.334 2.134-2.334s2.03.885 2.03 2.3v.161-.005Zm-3.567-.43h2.998c-.076-1-.607-1.544-1.451-1.544-.845 0-1.442.587-1.547 1.544ZM166.683 44.137v.55c-.038-.02-.124-.029-.29-.029-.74 0-1.219.805-1.219 1.572v2.466h-.559v-4.54h.536l.019.904c.204-.525.616-.951 1.266-.951.123 0 .204.019.251.028h-.004ZM175.704 44.156l-1.375 4.54h-.693l-1.02-3.484a5.435 5.435 0 0 1-.076-.327h-.009c-.01.057-.057.223-.085.327l-1.011 3.484h-.692l-1.376-4.54h.636l.991 3.626c.038.133.095.299.104.346h.019c.019-.047.067-.213.105-.346l1.02-3.626h.578l1.02 3.626c.038.133.095.299.104.346h.019a4.61 4.61 0 0 0 .114-.346l.991-3.626h.636ZM180.632 46.419c0 1.382-.873 2.324-2.191 2.324-1.319 0-2.182-.904-2.182-2.29 0-1.388.877-2.344 2.182-2.344 1.304 0 2.191.923 2.191 2.305v.005Zm-3.794.019c0 1.084.645 1.813 1.598 1.813.953 0 1.613-.73 1.613-1.813 0-1.084-.636-1.842-1.613-1.842s-1.598.748-1.598 1.842ZM183.862 44.137v.55c-.038-.02-.123-.029-.289-.029-.74 0-1.219.805-1.219 1.572v2.466h-.56v-4.54h.536l.019.904c.204-.525.617-.951 1.267-.951.123 0 .204.019.251.028h-.005ZM185.959 48.672c-.143.047-.28.076-.451.076-.47 0-.749-.308-.749-.824v-5.813h.559v5.719c0 .26.143.392.337.392.095 0 .152-.009.242-.047l.057.497h.005ZM190.854 42.111v6.585h-.551l-.009-.923c-.289.568-.878.97-1.674.97-1.21 0-2.049-.89-2.049-2.272 0-1.382.853-2.362 2.105-2.362.797 0 1.338.364 1.618.913v-2.916h.56v.005Zm-.56 4.483v-.336c0-.862-.598-1.662-1.589-1.662-.925 0-1.556.767-1.556 1.87 0 1.103.617 1.785 1.527 1.785.992 0 1.618-.814 1.618-1.652v-.005ZM137.574 46.982a.734.734 0 1 0 .001-1.468.734.734 0 0 0-.001 1.468Z"/></g><defs><clipPath id="clip-university"><path fill="#fff" d="M0 0h220v56H0z"/></clipPath></defs></svg>