<svg viewBox="0 0 252 64" xmlns="http://www.w3.org/2000/svg" width="252" height="64" fill="none"><path fill="#fff" d="M88.843 55.547H12.972L0 64V0h88.843v55.547Z"/><path fill="#C10230" d="M38.76 43.878v-20.78l-8.985 13.597h-.183l-8.891-13.459v20.642h-6.887V12.051h7.568l8.393 13.46 8.392-13.46h7.569v31.832H38.76v-.005ZM62.503 44.38c-8.57 0-13.818-4.775-13.818-14.143V12.05h7.02V30.06c0 5.184 2.597 7.867 6.887 7.867 4.29 0 6.887-2.59 6.887-7.64V12.05h7.02v17.96c0 9.638-5.425 14.369-14 14.369h.004Z"/><path fill="#fff" d="M107.827 13.79V5.191l-3.716 5.623h-.076l-3.679-5.566v8.54h-2.85V.623h3.128l3.47 5.565 3.471-5.565h3.128V13.79h-2.888.012ZM119.389 13.998c-3.547 0-5.715-1.973-5.715-5.85V.628h2.902V8.08c0 2.143 1.074 3.252 2.85 3.252 1.777 0 2.851-1.071 2.851-3.157V.635h2.902v7.431c0 3.99-2.244 5.944-5.79 5.944v-.012ZM132.833 13.979c-1.997 0-4.02-.694-5.6-2.105l1.719-2.049c1.189.977 2.434 1.601 3.944 1.601 1.189 0 1.903-.473 1.903-1.242v-.037c0-.732-.455-1.11-2.661-1.677-2.661-.675-4.374-1.412-4.374-4.028v-.038c0-2.388 1.921-3.97 4.62-3.97 1.922 0 3.566.598 4.906 1.676l-1.511 2.181c-1.17-.807-2.32-1.298-3.432-1.298-1.113 0-1.701.51-1.701 1.147v.038c0 .863.569 1.147 2.851 1.733 2.68.693 4.184 1.658 4.184 3.952V9.9c0 2.615-1.997 4.078-4.848 4.078ZM140.343 13.79V.623h2.901V13.79h-2.901ZM146.151 13.79v-2.2l7.263-8.427h-7.035V.623h10.771v2.2l-7.263 8.426h7.263v2.54h-10.999ZM160.026 13.79V.623h2.902V13.79h-2.902ZM106.633 32.667a3.409 3.409 0 0 1-.91 1.141c-.386.315-.847.561-1.385.738a5.633 5.633 0 0 1-1.77.264c-1.061 0-2.016-.176-2.87-.53-.853-.352-1.674-.882-2.47-1.587l.644-.738c.367.34.727.63 1.087.876s.727.448 1.106.605c.38.158.778.278 1.195.36.417.081.872.12 1.365.12s.948-.064 1.366-.196a3.251 3.251 0 0 0 1.062-.548c.29-.234.518-.511.682-.832.165-.322.247-.669.247-1.047v-.038c0-.352-.057-.668-.165-.945-.107-.277-.303-.53-.587-.756-.285-.227-.664-.435-1.145-.618-.48-.183-1.099-.347-1.858-.498a12.93 12.93 0 0 1-2.048-.58c-.569-.22-1.03-.479-1.39-.775a2.651 2.651 0 0 1-.784-1.027 3.438 3.438 0 0 1-.247-1.343v-.038c0-.492.108-.945.323-1.368.215-.422.512-.787.89-1.103.38-.315.829-.56 1.347-.737a5.268 5.268 0 0 1 1.707-.265c.961 0 1.789.132 2.49.397.702.265 1.385.668 2.055 1.21l-.626.776c-.632-.542-1.264-.927-1.903-1.154a6.079 6.079 0 0 0-2.054-.34c-.493 0-.936.07-1.334.202s-.74.308-1.024.535c-.284.227-.5.492-.65.794a2.123 2.123 0 0 0-.228.965v.038c0 .353.05.668.164.951.107.284.303.543.588.776.284.233.676.44 1.182.63.505.19 1.15.366 1.934.53 1.542.315 2.655.756 3.337 1.33.683.573 1.024 1.342 1.024 2.313v.037c0 .53-.107 1.015-.328 1.463l-.019.012ZM116.854 34.627v-1.796a4.498 4.498 0 0 1-1.328 1.437c-.556.39-1.276.586-2.161.586-.607 0-1.151-.094-1.631-.29a3.387 3.387 0 0 1-1.979-2.074 4.785 4.785 0 0 1-.259-1.594v-5.894h.929v5.724c0 .995.266 1.79.797 2.388.531.6 1.289.895 2.275.895a3.396 3.396 0 0 0 2.383-.964c.304-.303.538-.662.708-1.084.171-.422.26-.883.26-1.387v-5.572h.929v9.638h-.929l.006-.013ZM127.119 33.165c-.17.347-.404.643-.708.889a3.287 3.287 0 0 1-1.062.567c-.404.133-.84.196-1.308.196a6.029 6.029 0 0 1-2.124-.397 6.604 6.604 0 0 1-1.839-1.022l.55-.737a6.65 6.65 0 0 0 1.668.933c.582.22 1.182.328 1.802.328.657 0 1.207-.164 1.656-.492.449-.328.67-.775.67-1.336v-.038c0-.277-.07-.517-.209-.719a1.918 1.918 0 0 0-.568-.529 3.744 3.744 0 0 0-.816-.378c-.303-.101-.626-.202-.967-.303a49.343 49.343 0 0 1-1.182-.359 4.596 4.596 0 0 1-1.068-.479 2.476 2.476 0 0 1-.765-.725c-.196-.29-.291-.65-.291-1.078v-.038c0-.39.076-.743.234-1.065.158-.321.373-.598.651-.838s.613-.422 1.005-.555a4.013 4.013 0 0 1 1.29-.195c.581 0 1.175.095 1.788.29a6.063 6.063 0 0 1 1.638.788l-.493.775a6.408 6.408 0 0 0-1.429-.7 4.696 4.696 0 0 0-1.542-.264c-.67 0-1.201.157-1.6.479-.398.321-.594.718-.594 1.197v.038c0 .265.076.492.228.687.152.195.348.36.594.498.247.139.531.259.86.366.328.107.663.208 1.005.308.392.114.777.234 1.156.366.38.132.721.303 1.024.51.304.209.544.454.727.744.184.29.272.65.272 1.078v.038c0 .429-.088.813-.259 1.16l.006.012ZM134.097 34.71a3.662 3.662 0 0 1-.822.081c-.379 0-.733-.05-1.061-.151a2.255 2.255 0 0 1-.86-.48 2.252 2.252 0 0 1-.575-.831c-.139-.334-.209-.725-.209-1.179v-6.31h-1.403v-.85h1.403v-3.082h.929v3.082h3.395v.85h-3.395v6.203c0 .693.184 1.172.544 1.45.36.277.822.416 1.391.416.24 0 .467-.026.682-.07a4.48 4.48 0 0 0 .74-.252v.87a4.795 4.795 0 0 1-.746.258l-.013-.006ZM143.926 34.627V33.02a4.72 4.72 0 0 1-.594.668c-.234.22-.499.416-.803.586a4.607 4.607 0 0 1-2.288.574c-.455 0-.904-.063-1.346-.19a3.865 3.865 0 0 1-1.195-.566 3.003 3.003 0 0 1-.859-.946c-.222-.378-.335-.82-.335-1.323v-.038c0-.505.101-.952.309-1.343.209-.39.493-.718.866-.983a4.021 4.021 0 0 1 1.328-.605 6.666 6.666 0 0 1 1.725-.208c.683 0 1.271.038 1.764.113.493.076.973.177 1.441.303v-.416c0-.977-.284-1.708-.841-2.2-.556-.492-1.34-.731-2.338-.731a5.76 5.76 0 0 0-1.631.22 8.01 8.01 0 0 0-1.403.555l-.342-.813c.531-.258 1.068-.46 1.612-.618a6.535 6.535 0 0 1 1.821-.233c1.251 0 2.237.315 2.958.946.72.63 1.081 1.575 1.081 2.836v6.007h-.911l-.019.012Zm.019-4.708a20.47 20.47 0 0 0-1.422-.29 10.935 10.935 0 0 0-1.858-.139c-1.024 0-1.808.202-2.358.612s-.822.951-.822 1.626v.038c0 .353.076.662.228.933.152.27.36.498.619.687.26.189.557.334.898.435.341.1.695.15 1.062.15.493 0 .961-.068 1.403-.213a3.83 3.83 0 0 0 1.163-.606c.335-.258.601-.567.797-.932.196-.366.29-.763.29-1.204v-1.097ZM147.814 22.475v-1.267h1.157v1.267h-1.157Zm.114 12.153V24.99h.929v9.638h-.929ZM159.444 34.627v-5.723c0-.996-.265-1.79-.796-2.389-.531-.598-1.29-.895-2.276-.895-.48 0-.923.082-1.327.252-.405.17-.759.404-1.062.706a3.207 3.207 0 0 0-.708 1.085 3.675 3.675 0 0 0-.253 1.386v5.572h-.929v-9.637h.929v1.796a4.497 4.497 0 0 1 1.328-1.437c.556-.39 1.276-.586 2.161-.586.607 0 1.151.094 1.631.29.481.195.885.466 1.22.82.335.352.588.768.759 1.253.17.486.259 1.015.259 1.595v5.893h-.929l-.007.02ZM170.026 34.627V33.02a4.848 4.848 0 0 1-.594.668c-.234.22-.5.416-.803.586-.304.17-.645.31-1.03.416a4.682 4.682 0 0 1-1.258.158c-.455 0-.904-.063-1.347-.19a3.87 3.87 0 0 1-1.194-.566 3.006 3.006 0 0 1-.86-.946c-.221-.378-.335-.82-.335-1.323v-.038c0-.505.101-.952.31-1.343.208-.39.493-.718.866-.983a4.015 4.015 0 0 1 1.327-.605 6.674 6.674 0 0 1 1.726-.208c.682 0 1.27.038 1.763.113.493.076.974.177 1.441.303v-.416c0-.977-.284-1.708-.84-2.2-.563-.492-1.34-.731-2.339-.731-.594 0-1.138.076-1.631.22a8.01 8.01 0 0 0-1.403.555l-.341-.813a10.1 10.1 0 0 1 1.611-.618 6.54 6.54 0 0 1 1.821-.233c1.251 0 2.237.315 2.958.946.721.63 1.081 1.575 1.081 2.836v6.007h-.91l-.019.012Zm.019-4.708c-.405-.1-.879-.195-1.422-.29a10.956 10.956 0 0 0-1.859-.139c-1.024 0-1.808.202-2.358.612-.549.41-.821.951-.821 1.626v.038c0 .353.076.662.227.933.152.27.361.498.62.687.259.189.556.334.897.435.342.1.696.15 1.062.15.493 0 .961-.068 1.403-.213a3.835 3.835 0 0 0 1.164-.606c.335-.258.6-.567.796-.932.196-.366.291-.763.291-1.204v-1.097ZM183.192 31.91a4.963 4.963 0 0 1-1.068 1.59 4.69 4.69 0 0 1-1.504 1.001 4.43 4.43 0 0 1-1.713.347c-.481 0-.923-.063-1.328-.19a4.211 4.211 0 0 1-1.087-.51 4.913 4.913 0 0 1-.872-.737 6.328 6.328 0 0 1-.689-.87v2.08h-.929v-13.79h.929v6.308c.202-.315.436-.617.701-.907.266-.29.557-.542.879-.757a4.505 4.505 0 0 1 1.081-.517 4.137 4.137 0 0 1 1.315-.201c.581 0 1.15.113 1.713.34a4.634 4.634 0 0 1 1.504.983c.443.43.797.952 1.068 1.576.272.624.411 1.324.411 2.105v.038c0 .782-.139 1.482-.411 2.105v.007Zm-.575-2.104c0-.63-.101-1.204-.303-1.721a3.929 3.929 0 0 0-.828-1.311 3.693 3.693 0 0 0-2.668-1.122c-.505 0-.998.1-1.473.302a3.993 3.993 0 0 0-1.264.851 4.15 4.15 0 0 0-1.22 2.988v.038c0 .617.114 1.178.335 1.689.222.51.519.945.885 1.305.367.359.79.636 1.264.838a3.74 3.74 0 0 0 1.473.303c.531 0 1.031-.095 1.492-.284.461-.19.866-.46 1.207-.813.342-.353.613-.782.809-1.292a4.78 4.78 0 0 0 .297-1.727v-.038l-.006-.006ZM186.296 34.627v-13.79h.929v13.79h-.929ZM191.289 31.785c.228.466.512.857.854 1.185.341.327.733.573 1.169.743.436.17.898.252 1.378.252.758 0 1.403-.144 1.928-.434a5.72 5.72 0 0 0 1.397-1.078l.645.567a6.772 6.772 0 0 1-1.682 1.311c-.626.347-1.403.517-2.326.517a4.68 4.68 0 0 1-1.814-.36 4.597 4.597 0 0 1-1.517-1.02 4.848 4.848 0 0 1-1.037-1.589c-.253-.617-.379-1.305-.379-2.06v-.039c0-.693.114-1.342.348-1.954a5 5 0 0 1 .967-1.594 4.599 4.599 0 0 1 1.447-1.078 4.182 4.182 0 0 1 1.821-.397c.657 0 1.295.126 1.839.384a4.12 4.12 0 0 1 1.391 1.066c.385.453.682.983.891 1.594a6.11 6.11 0 0 1 .316 1.992V30c0 .038-.006.095-.019.17h-8.015c.038.599.171 1.135.398 1.595v.019Zm6.65-2.433a5.46 5.46 0 0 0-.297-1.406 3.903 3.903 0 0 0-.664-1.191 3.182 3.182 0 0 0-1.055-.832c-.418-.208-.904-.309-1.461-.309-.48 0-.929.095-1.346.284-.417.189-.784.447-1.094.781a4.288 4.288 0 0 0-.771 1.192 4.44 4.44 0 0 0-.36 1.48h7.048ZM107.954 53.108c-.228.447-.55.825-.967 1.128a4.895 4.895 0 0 1-1.492.719c-.581.17-1.232.252-1.947.252h-5.752V41.983h5.468c.645 0 1.226.076 1.757.227.531.151.98.372 1.353.655.373.284.663.63.872 1.034.209.403.31.85.31 1.343v.037c0 .454-.063.851-.196 1.192-.133.34-.304.636-.519.888a3.152 3.152 0 0 1-.726.637c-.272.17-.538.315-.803.422.392.101.771.233 1.138.404.366.17.682.384.954.643.272.258.487.56.651.907.164.347.247.744.247 1.198v.038a3.25 3.25 0 0 1-.342 1.5h-.006Zm-1.384-7.784c0-.738-.285-1.33-.854-1.778-.569-.447-1.39-.674-2.465-.674h-4.475v5.231h4.374c.493 0 .948-.063 1.365-.183.418-.12.778-.296 1.081-.523a2.32 2.32 0 0 0 .708-.857c.171-.34.259-.737.259-1.179v-.037h.007Zm.739 6.246c0-.82-.341-1.456-1.03-1.904-.689-.447-1.688-.674-3.003-.674h-4.487v5.326h4.81c1.138 0 2.042-.246 2.712-.731.67-.486 1.005-1.147 1.005-1.98v-.037h-.007ZM118.333 55.207V53.41a4.496 4.496 0 0 1-1.328 1.437c-.556.391-1.276.587-2.161.587-.607 0-1.151-.095-1.631-.29a3.379 3.379 0 0 1-1.22-.82 3.47 3.47 0 0 1-.759-1.254 4.785 4.785 0 0 1-.259-1.595v-5.893h.929v5.723c0 .996.266 1.79.797 2.389.531.599 1.289.895 2.275.895a3.396 3.396 0 0 0 2.383-.964c.304-.303.538-.662.708-1.084.171-.423.259-.883.259-1.387v-5.572h.93v9.637h-.93l.007-.012ZM128.598 53.75c-.17.347-.404.644-.708.89a3.29 3.29 0 0 1-1.062.567 4.18 4.18 0 0 1-1.308.195 6.029 6.029 0 0 1-2.124-.397 6.607 6.607 0 0 1-1.839-1.021l.55-.738a6.651 6.651 0 0 0 1.668.933c.582.221 1.182.328 1.802.328.657 0 1.207-.164 1.656-.491.449-.328.67-.776.67-1.337v-.038c0-.277-.07-.516-.209-.718a1.91 1.91 0 0 0-.569-.53 3.735 3.735 0 0 0-.815-.378c-.303-.1-.626-.201-.967-.302a48.89 48.89 0 0 1-1.182-.36 4.592 4.592 0 0 1-1.068-.479 2.477 2.477 0 0 1-.765-.724c-.196-.29-.291-.65-.291-1.078v-.038c0-.39.076-.744.234-1.065.158-.322.373-.6.651-.839.278-.24.613-.422 1.005-.554a4.009 4.009 0 0 1 1.289-.196c.582 0 1.176.095 1.789.29a6.054 6.054 0 0 1 1.637.788l-.493.776a6.376 6.376 0 0 0-1.428-.7 4.696 4.696 0 0 0-1.542-.265c-.67 0-1.201.158-1.6.48-.398.32-.594.718-.594 1.197v.038c0 .264.076.491.228.686.151.196.347.36.594.498.246.14.531.259.86.366.328.107.663.208 1.005.309.391.113.777.233 1.156.365.38.133.721.303 1.024.511.304.208.544.454.727.744.184.29.272.649.272 1.078v.037c0 .429-.088.813-.259 1.16l.006.013ZM131.285 43.06v-1.266h1.156v1.267h-1.156Zm.114 12.147v-9.638h.929v9.638h-.929ZM142.921 55.207v-5.723c0-.996-.265-1.79-.796-2.389-.531-.599-1.289-.901-2.276-.901-.48 0-.922.088-1.327.258-.404.17-.758.403-1.062.706a3.207 3.207 0 0 0-.708 1.084c-.17.422-.253.889-.253 1.387V55.2h-.929v-9.638h.929v1.797a4.508 4.508 0 0 1 1.328-1.437c.556-.391 1.277-.587 2.162-.587.606 0 1.15.101 1.63.297.481.195.885.466 1.22.82.335.352.588.768.759 1.253.17.486.259 1.015.259 1.595v5.893h-.929l-.007.013ZM147.675 52.364c.228.467.512.858.853 1.185.342.328.734.574 1.17.744.436.17.897.252 1.378.252.758 0 1.403-.145 1.928-.435a5.72 5.72 0 0 0 1.397-1.078l.644.568a6.75 6.75 0 0 1-1.681 1.31c-.626.347-1.403.518-2.326.518a4.68 4.68 0 0 1-1.814-.36 4.588 4.588 0 0 1-1.517-1.02 4.848 4.848 0 0 1-1.037-1.59c-.253-.617-.379-1.304-.379-2.06v-.038c0-.693.114-1.343.347-1.954a4.95 4.95 0 0 1 .968-1.595c.41-.453.891-.813 1.447-1.078a4.18 4.18 0 0 1 1.82-.397c.658 0 1.296.127 1.84.385a4.117 4.117 0 0 1 1.39 1.065c.386.454.683.983.892 1.595.208.611.316 1.273.316 1.992v.208c0 .037-.007.094-.019.17h-8.015c.038.599.171 1.134.398 1.594v.02Zm6.65-2.426a5.462 5.462 0 0 0-.297-1.406 3.924 3.924 0 0 0-.664-1.191 3.185 3.185 0 0 0-1.056-.832c-.417-.208-.904-.315-1.46-.315-.48 0-.929.094-1.346.283a3.38 3.38 0 0 0-1.094.782 4.267 4.267 0 0 0-.771 1.191 4.44 4.44 0 0 0-.36 1.481h7.048v.007ZM163.996 53.75a2.623 2.623 0 0 1-.708.89 3.3 3.3 0 0 1-1.062.567 4.188 4.188 0 0 1-1.308.195 6.029 6.029 0 0 1-2.124-.397 6.627 6.627 0 0 1-1.84-1.021l.55-.738a6.64 6.64 0 0 0 1.669.933c.581.221 1.182.328 1.801.328.658 0 1.208-.164 1.657-.491.448-.328.67-.776.67-1.337v-.038c0-.277-.07-.516-.209-.718a1.922 1.922 0 0 0-.569-.53 3.735 3.735 0 0 0-.815-.378c-.304-.1-.626-.201-.967-.302a48.89 48.89 0 0 1-1.182-.36 4.6 4.6 0 0 1-1.069-.479 2.477 2.477 0 0 1-.765-.724c-.196-.29-.29-.65-.29-1.078v-.038c0-.39.076-.744.234-1.065.158-.322.372-.6.651-.839.278-.24.613-.422 1.005-.554a4.004 4.004 0 0 1 1.289-.196c.582 0 1.176.095 1.789.29a6.054 6.054 0 0 1 1.637.788l-.493.776a6.376 6.376 0 0 0-1.428-.7 4.697 4.697 0 0 0-1.543-.265c-.67 0-1.201.158-1.599.48-.398.32-.594.718-.594 1.197v.038c0 .264.076.491.227.686.152.196.348.36.595.498.246.14.531.259.859.366.329.107.664.208 1.005.309.392.113.778.233 1.157.365a4.31 4.31 0 0 1 1.024.511c.303.208.544.454.727.744.183.29.272.649.272 1.078v.037c0 .429-.089.813-.259 1.16l.006.013ZM173.098 53.75a2.623 2.623 0 0 1-.708.89 3.31 3.31 0 0 1-1.062.567 4.19 4.19 0 0 1-1.309.195 6.023 6.023 0 0 1-2.123-.397 6.613 6.613 0 0 1-1.84-1.021l.55-.738a6.64 6.64 0 0 0 1.669.933c.581.221 1.182.328 1.801.328.658 0 1.208-.164 1.656-.491.449-.328.67-.776.67-1.337v-.038c0-.277-.069-.516-.208-.718a1.922 1.922 0 0 0-.569-.53 3.735 3.735 0 0 0-.815-.378c-.304-.1-.626-.201-.968-.302a51.783 51.783 0 0 1-1.182-.36 4.611 4.611 0 0 1-1.068-.479 2.477 2.477 0 0 1-.765-.724c-.196-.29-.29-.65-.29-1.078v-.038c0-.39.075-.744.233-1.065.158-.322.373-.6.651-.839.279-.24.614-.422 1.006-.554a4 4 0 0 1 1.289-.196c.582 0 1.176.095 1.789.29a6.054 6.054 0 0 1 1.637.788l-.493.776a6.404 6.404 0 0 0-1.429-.7 4.696 4.696 0 0 0-1.542-.265c-.67 0-1.201.158-1.599.48-.398.32-.594.718-.594 1.197v.038c0 .264.076.491.227.686.152.196.348.36.594.498.247.14.531.259.86.366.329.107.664.208 1.005.309.392.113.778.233 1.157.365.379.133.72.303 1.024.511.303.208.543.454.727.744.183.29.272.649.272 1.078v.037c0 .429-.089.813-.26 1.16l.007.013ZM181.96 55.207V41.983h.986v13.224h-.986ZM193.888 55.207v-5.723c0-.996-.266-1.79-.797-2.389-.531-.599-1.289-.901-2.275-.901-.481 0-.923.088-1.328.258-.404.17-.758.403-1.062.706a3.207 3.207 0 0 0-.708 1.084c-.17.422-.252.889-.252 1.387V55.2h-.93v-9.638h.93v1.797a4.494 4.494 0 0 1 1.327-1.437c.556-.391 1.277-.587 2.162-.587.607 0 1.15.101 1.631.297.48.195.884.466 1.219.82.335.352.588.768.759 1.253a4.76 4.76 0 0 1 .259 1.595v5.893h-.929l-.006.013ZM203.97 53.75a2.623 2.623 0 0 1-.708.89 3.31 3.31 0 0 1-1.062.567 4.19 4.19 0 0 1-1.309.195 6.02 6.02 0 0 1-2.123-.397 6.613 6.613 0 0 1-1.84-1.021l.55-.738a6.64 6.64 0 0 0 1.669.933c.581.221 1.182.328 1.801.328.658 0 1.208-.164 1.656-.491.449-.328.67-.776.67-1.337v-.038c0-.277-.069-.516-.208-.718a1.922 1.922 0 0 0-.569-.53 3.722 3.722 0 0 0-.816-.378c-.303-.1-.625-.201-.967-.302a50.295 50.295 0 0 1-1.182-.36 4.611 4.611 0 0 1-1.068-.479 2.477 2.477 0 0 1-.765-.724c-.196-.29-.291-.65-.291-1.078v-.038c0-.39.076-.744.234-1.065.158-.322.373-.6.651-.839.279-.24.614-.422 1.005-.554a4.01 4.01 0 0 1 1.29-.196c.581 0 1.176.095 1.789.29a6.054 6.054 0 0 1 1.637.788l-.493.776a6.404 6.404 0 0 0-1.429-.7 4.696 4.696 0 0 0-1.542-.265c-.67 0-1.201.158-1.599.48-.398.32-.594.718-.594 1.197v.038c0 .264.076.491.227.686.152.196.348.36.594.498.247.14.531.259.86.366.329.107.664.208 1.005.309.392.113.778.233 1.157.365.379.133.72.303 1.024.511.303.208.543.454.727.744.183.29.271.649.271 1.078v.037c0 .429-.088.813-.259 1.16l.007.013ZM210.948 55.295a3.668 3.668 0 0 1-.822.082c-.379 0-.733-.05-1.062-.151a2.257 2.257 0 0 1-.859-.48 2.253 2.253 0 0 1-.576-.831c-.139-.334-.208-.725-.208-1.179v-6.31h-1.403v-.85h1.403v-3.082h.929v3.082h3.394v.85h-3.394v6.203c0 .693.183 1.172.544 1.45.36.277.821.416 1.39.416.24 0 .468-.026.683-.07.215-.05.461-.132.739-.252v.87a4.75 4.75 0 0 1-.745.258l-.013-.006ZM213.925 43.06v-1.266h1.157v1.267h-1.157Zm.114 12.147v-9.638h.929v9.638h-.929ZM222.142 55.295a3.674 3.674 0 0 1-.822.082c-.379 0-.733-.05-1.062-.151a2.261 2.261 0 0 1-.86-.48 2.262 2.262 0 0 1-.575-.831c-.139-.334-.208-.725-.208-1.179v-6.31h-1.404v-.85h1.404v-3.082h.929v3.082h3.394v.85h-3.394v6.203c0 .693.183 1.172.543 1.45.361.277.822.416 1.391.416.24 0 .468-.026.683-.07.215-.05.461-.132.739-.252v.87a4.76 4.76 0 0 1-.746.258l-.012-.006ZM232.426 55.207V53.41a4.496 4.496 0 0 1-1.328 1.437c-.556.391-1.276.587-2.161.587-.607 0-1.151-.095-1.631-.29a3.387 3.387 0 0 1-1.979-2.074 4.785 4.785 0 0 1-.259-1.595v-5.893h.929v5.723c0 .996.266 1.79.797 2.389.531.599 1.289.895 2.275.895a3.396 3.396 0 0 0 2.383-.964c.304-.303.538-.662.708-1.084.171-.423.26-.883.26-1.387v-5.572h.929v9.637h-.929l.006-.012ZM240.473 55.295a3.662 3.662 0 0 1-.822.082c-.379 0-.733-.05-1.062-.151a2.257 2.257 0 0 1-.859-.48 2.25 2.25 0 0 1-.575-.831c-.139-.334-.209-.725-.209-1.179v-6.31h-1.403v-.85h1.403v-3.082h.929v3.082h3.395v.85h-3.395v6.203c0 .693.184 1.172.544 1.45.36.277.822.416 1.39.416.241 0 .468-.026.683-.07a4.47 4.47 0 0 0 .74-.252v.87a4.796 4.796 0 0 1-.746.258l-.013-.006ZM243.899 52.364c.227.467.512.858.853 1.185.341.328.733.574 1.169.744.437.17.898.252 1.378.252.759 0 1.404-.145 1.928-.435.525-.29.993-.649 1.397-1.078l.645.568a6.767 6.767 0 0 1-1.681 1.31c-.626.347-1.404.518-2.327.518-.632 0-1.238-.12-1.814-.36a4.598 4.598 0 0 1-1.517-1.02 4.83 4.83 0 0 1-1.036-1.59c-.253-.617-.38-1.304-.38-2.06v-.038c0-.693.114-1.343.348-1.954a4.948 4.948 0 0 1 .967-1.595 4.592 4.592 0 0 1 1.448-1.078 4.18 4.18 0 0 1 1.82-.397c.657 0 1.296.127 1.839.385a4.11 4.11 0 0 1 1.391 1.065c.386.454.683.983.891 1.595a6.11 6.11 0 0 1 .316 1.992v.208c0 .037-.006.094-.019.17H243.5c.038.599.171 1.134.399 1.594v.02Zm6.649-2.426a5.462 5.462 0 0 0-.297-1.406 3.921 3.921 0 0 0-.663-1.191 3.196 3.196 0 0 0-1.056-.832c-.417-.208-.904-.315-1.46-.315-.481 0-.929.094-1.347.283-.417.19-.783.448-1.093.782a4.416 4.416 0 0 0-1.132 2.672h7.048v.007Z"/></svg>