<svg viewBox="0 0 78 56" xmlns="http://www.w3.org/2000/svg" width="78" height="56" fill="none"><path fill="#fff" d="M77.668 48.606H11.341L0 56V0h77.668v48.606Z"/><path fill="#C10230" d="M33.885 38.395V20.213L26.03 32.109h-.161L18.095 20.33v18.064h-6.02V10.542h6.618L26.03 22.32l7.338-11.778h6.616v27.849h-6.1v.004ZM54.64 38.83c-7.493 0-12.08-4.18-12.08-12.373V10.542h6.137v15.754c0 4.535 2.272 6.883 6.02 6.883 3.747 0 6.019-2.268 6.019-6.684V10.542h6.137v15.716c0 8.436-4.743 12.573-12.237 12.573h.005Z"/></svg>