<svg viewBox="0 0 157 64" xmlns="http://www.w3.org/2000/svg" width="157" height="64" fill="none"><g clip-path="url(#clip-wings)"><path fill="#fff" d="M88.47 55.547H12.917L0 64V0h88.47v55.547Z"/><path fill="#C10230" d="M38.597 43.878v-20.78l-8.948 13.597h-.181l-8.855-13.459v20.642h-6.857V12.051h7.536l8.357 13.46 8.358-13.46h7.536v31.832h-6.946v-.005ZM62.24 44.38c-8.535 0-13.76-4.775-13.76-14.143V12.05h6.99V30.06c0 5.184 2.587 7.867 6.859 7.867 4.271 0 6.858-2.59 6.858-7.64V12.05h6.99v17.96c0 9.638-5.402 14.369-13.941 14.369h.004Z"/><path fill="#fff" d="M106.901 24.631v-8.098l-3.487 5.3h-.071l-3.45-5.246v8.044h-2.671V12.229h2.936l3.256 5.246 3.256-5.246h2.937v12.402h-2.706ZM117.427 24.826c-3.327 0-5.363-1.861-5.363-5.512v-7.09h2.724v7.018c0 2.021 1.007 3.065 2.67 3.065s2.67-1.008 2.67-2.976V12.23h2.724v7c0 3.758-2.107 5.597-5.434 5.597h.009ZM129.719 24.808c-1.876 0-3.77-.653-5.256-1.985l1.61-1.933c1.113.92 2.284 1.506 3.7 1.506 1.113 0 1.787-.444 1.787-1.168v-.036c0-.692-.426-1.043-2.493-1.576-2.493-.64-4.103-1.329-4.103-3.794v-.035c0-2.253 1.805-3.74 4.334-3.74 1.805 0 3.345.568 4.6 1.576l-1.415 2.057c-1.096-.764-2.178-1.222-3.221-1.222-1.042 0-1.592.48-1.592 1.08v.035c0 .818.532 1.08 2.67 1.63 2.511.654 3.931 1.56 3.931 3.723v.035c0 2.461-1.877 3.847-4.547 3.847h-.005ZM136.444 24.631V12.229h2.724v12.402h-2.724ZM141.572 24.63v-2.074l6.813-7.938h-6.6v-2.394h10.1V14.3l-6.813 7.937h6.813v2.395h-10.313ZM154.272 24.631V12.229h2.724v12.402h-2.724ZM109.855 43.971h-.745L105.481 33.2l-3.624 10.772h-.745l-4.494-12.486h1.025l3.89 11.034 3.624-11.07h.71l3.629 11.07 3.89-11.034h.954l-4.494 12.486h.009ZM116.309 32.493v-1.186h1.078v1.186h-1.078Zm.107 11.39v-9.036h.865v9.035h-.865ZM127.244 43.883v-5.366c0-.933-.249-1.68-.741-2.24-.492-.559-1.202-.843-2.125-.843-.448 0-.86.08-1.237.24a3.046 3.046 0 0 0-1.655 1.683c-.16.395-.24.83-.24 1.302v5.224h-.865v-9.036h.865v1.684a4.174 4.174 0 0 1 1.238-1.346c.519-.364 1.193-.55 2.018-.55.568 0 1.074.093 1.522.275.448.182.829.44 1.14.773.31.328.55.724.71 1.177.159.453.239.955.239 1.497v5.526h-.869ZM138.959 44.309a3.647 3.647 0 0 1-.922 1.337 3.98 3.98 0 0 1-1.411.822 5.449 5.449 0 0 1-1.774.284c-1.526 0-2.906-.466-4.148-1.4l.515-.71c1.1.848 2.315 1.275 3.655 1.275.519 0 .998-.071 1.428-.222.43-.147.803-.364 1.118-.662a3.02 3.02 0 0 0 .736-1.093c.178-.435.266-.941.266-1.519v-1.31a5.67 5.67 0 0 1-.674.795c-.248.244-.523.47-.829.666a4.144 4.144 0 0 1-1.025.462c-.377.116-.79.169-1.238.169a4.31 4.31 0 0 1-1.592-.302c-.519-.2-.98-.489-1.389-.858a4.224 4.224 0 0 1-.98-1.337c-.248-.52-.372-1.106-.372-1.754v-.036c0-.648.124-1.239.372-1.772.249-.533.577-.982.98-1.355.409-.373.87-.657 1.389-.857a4.403 4.403 0 0 1 1.592-.302c.448 0 .865.058 1.247.169a4.27 4.27 0 0 1 1.863 1.088c.244.244.466.502.656.764v-1.808h.865v7.636c0 .684-.11 1.293-.328 1.825v.005Zm-.483-5.406c0-.52-.107-.99-.32-1.417a3.394 3.394 0 0 0-.843-1.088 3.646 3.646 0 0 0-1.197-.689 4.09 4.09 0 0 0-1.384-.24 3.8 3.8 0 0 0-1.349.24c-.426.16-.798.387-1.118.684a3.19 3.19 0 0 0-.754 1.07 3.536 3.536 0 0 0-.275 1.427v.035a3.382 3.382 0 0 0 1.047 2.488c.32.297.692.537 1.118.71.426.174.869.258 1.331.258a4.05 4.05 0 0 0 1.384-.249c.448-.164.847-.4 1.197-.697.351-.298.63-.662.843-1.08.213-.417.32-.888.32-1.407v-.045ZM148.053 42.514c-.16.324-.382.6-.666.83a2.981 2.981 0 0 1-.989.53 4.01 4.01 0 0 1-1.22.186 5.595 5.595 0 0 1-1.983-.373c-.66-.249-1.233-.564-1.716-.96l.514-.693a6.19 6.19 0 0 0 1.557.875c.542.21 1.105.311 1.682.311.612 0 1.131-.15 1.548-.457.417-.307.625-.724.625-1.257v-.036c0-.257-.066-.484-.195-.67a1.74 1.74 0 0 0-.532-.494 3.686 3.686 0 0 0-.763-.355 31.889 31.889 0 0 0-.901-.284 38.79 38.79 0 0 1-1.104-.338 4.348 4.348 0 0 1-.998-.453 2.332 2.332 0 0 1-.719-.68c-.182-.27-.275-.608-.275-1.008v-.035c0-.365.075-.698.222-1a2.38 2.38 0 0 1 .612-.786c.257-.222.572-.4.936-.52a3.707 3.707 0 0 1 1.202-.186 5.5 5.5 0 0 1 1.672.27 5.678 5.678 0 0 1 1.531.738l-.462.724a5.908 5.908 0 0 0-1.335-.653 4.415 4.415 0 0 0-1.442-.249c-.625 0-1.122.151-1.494.453-.373.302-.559.676-.559 1.124v.036c0 .248.071.462.213.644.142.182.328.337.559.466.23.129.496.245.802.347.306.102.621.2.936.293.364.107.723.222 1.078.346.355.125.675.285.954.48.284.196.51.426.683.697.169.271.257.609.257 1.009v.035c0 .4-.079.764-.239 1.089l.009.004Z"/></g><defs><clipPath id="clip-wings"><path fill="#fff" d="M0 0h157v64H0z"/></clipPath></defs></svg>