<svg width="201" height="57" viewBox="0 0 201 57" fill="none" xmlns="http://www.w3.org/2000/svg">
<g id="Group">
<g id="Group_2">
<path id="Vector" d="M75.6516 48.977H11.0463L0 56.3061V0.798529H75.6516V48.977Z" fill="#C10230"/>
</g>
<g id="Group_3">
<g id="Group_4">
<g id="Group_5">
<path id="Vector_2" d="M33.0042 38.8563V20.834L25.3536 32.6252H25.1965L17.6291 20.9513V38.8563H11.7617V11.248H18.2065L25.3536 22.922L32.5007 11.248H38.9455V38.8516H33.0042V38.8563Z" fill="white"/>
</g>
</g>
<g id="Group_6">
<g id="Group_7">
<path id="Vector_3" d="M53.2221 39.288C45.9226 39.288 41.4551 35.1449 41.4551 27.0229V11.248H47.4333V26.8633C47.4333 31.3584 49.6462 33.6856 53.296 33.6856C56.9458 33.6856 59.1587 31.4381 59.1587 27.0604V11.248H65.1369V26.8258C65.1462 35.1871 60.5262 39.288 53.2221 39.288Z" fill="white"/>
</g>
</g>
</g>
<g id="Group_8">
<g id="Group_9">
<g id="Group_10">
<g id="Group_11">
<path id="Vector_4" d="M99.2827 13.5938V5.35919L95.7854 10.7457H95.7161L92.2557 5.41081V13.5938H89.5762V0.976769H92.5237L95.79 6.31169L99.0563 0.976769H102.004V13.5891H99.2827V13.5938Z" fill="#54565A"/>
</g>
<g id="Group_12">
<path id="Vector_5" d="M110.159 13.7909C106.823 13.7909 104.781 11.9 104.781 8.18853V0.976769H107.512V8.11346C107.512 10.1686 108.523 11.229 110.191 11.229C111.859 11.229 112.871 10.2014 112.871 8.20261V0.976769H115.601V8.09469C115.606 11.9188 113.494 13.7909 110.159 13.7909Z" fill="#54565A"/>
</g>
<g id="Group_13">
<path id="Vector_6" d="M122.807 13.7722C120.926 13.7722 119.027 13.1059 117.535 11.7546L119.152 9.7886C120.27 10.727 121.439 11.3182 122.862 11.3182C123.98 11.3182 124.654 10.8678 124.654 10.1311V10.0936C124.654 9.38977 124.229 9.02848 122.15 8.48889C119.646 7.84138 118.034 7.13756 118.034 4.63198V4.59913C118.034 2.30939 119.845 0.798531 122.381 0.798531C124.192 0.798531 125.736 1.37566 126.997 2.40323L125.578 4.49591C124.479 3.72171 123.398 3.2525 122.349 3.2525C121.3 3.2525 120.751 3.74048 120.751 4.35045V4.38799C120.751 5.21849 121.282 5.48594 123.43 6.0443C125.948 6.71058 127.371 7.63023 127.371 9.83083V9.86836C127.366 12.3693 125.486 13.7722 122.807 13.7722Z" fill="#54565A"/>
</g>
<g id="Group_14">
<path id="Vector_7" d="M129.871 13.5938V0.976769H132.601V13.5891H129.871V13.5938Z" fill="#54565A"/>
</g>
<g id="Group_15">
<path id="Vector_8" d="M135.336 13.5938V11.4871L142.169 3.41197H135.548V0.976769H145.68V3.08352L138.847 11.1586H145.68V13.5891H135.336V13.5938Z" fill="#54565A"/>
</g>
<g id="Group_16">
<path id="Vector_9" d="M148.393 13.5938V0.976769H151.123V13.5891H148.393V13.5938Z" fill="#54565A"/>
</g>
</g>
<g id="Group_17">
<g id="Group_18">
<path id="Vector_10" d="M94.9499 31.724C91.6143 31.724 89.5723 29.8331 89.5723 26.1216V18.9099H92.3026V26.0466C92.3026 28.1017 93.3144 29.1621 94.9822 29.1621C96.65 29.1621 97.6618 28.1346 97.6618 26.1357V18.9099H100.392V26.0278C100.401 29.8472 98.2901 31.724 94.9499 31.724Z" fill="#54565A"/>
</g>
<g id="Group_19">
<path id="Vector_11" d="M111.895 31.5269L105.88 23.5081V31.5269H103.182V18.9099H105.7L111.521 26.6753V18.9099H114.219V31.5222H111.895V31.5269Z" fill="#54565A"/>
</g>
<g id="Group_20">
<path id="Vector_12" d="M117.324 31.5269V18.9099H120.055V31.5222H117.324V31.5269Z" fill="#54565A"/>
</g>
<g id="Group_21">
<path id="Vector_13" d="M129.535 31.6161H127.123L122.102 18.9099H125.118L128.366 27.792L131.614 18.9099H134.562L129.535 31.6161Z" fill="#54565A"/>
</g>
<g id="Group_22">
<path id="Vector_14" d="M136.469 31.5269V18.9099H145.838V21.3779H139.185V23.9351H145.039V26.4032H139.185V29.0542H145.926V31.5222H136.469V31.5269Z" fill="#54565A"/>
</g>
<g id="Group_23">
<path id="Vector_15" d="M151.092 31.5269H148.361V18.9099H154.039C156.968 18.9099 158.724 20.477 158.724 23.0718V23.1093C158.724 25.1457 157.643 26.4266 156.063 27.0178L159.098 31.5222H155.906L151.706 25.0331H153.864C155.194 25.0331 155.957 24.3105 155.957 23.2501V23.2125C155.957 22.0254 155.139 21.4108 153.808 21.4108H151.092V31.5269Z" fill="#54565A"/>
</g>
<g id="Group_24">
<path id="Vector_16" d="M165.607 31.7052C163.727 31.7052 161.828 31.0389 160.336 29.6876L161.953 27.7216C163.071 28.66 164.24 29.2512 165.663 29.2512C166.781 29.2512 167.455 28.8008 167.455 28.0641V28.0266C167.455 27.3227 167.03 26.9615 164.951 26.4219C162.447 25.7744 160.835 25.0705 160.835 22.565V22.5274C160.835 20.2377 162.646 18.7268 165.182 18.7268C166.993 18.7268 168.536 19.3039 169.798 20.3315L168.379 22.4242C167.28 21.65 166.199 21.1808 165.15 21.1808C164.101 21.1808 163.551 21.6688 163.551 22.2787V22.3163C163.551 23.1468 164.083 23.4142 166.231 23.9726C168.749 24.6389 170.172 25.5585 170.172 27.7591V27.7966C170.167 30.2975 168.287 31.7052 165.607 31.7052Z" fill="#54565A"/>
</g>
<g id="Group_25">
<path id="Vector_17" d="M172.666 31.5269V18.9099H175.396V31.5222H172.666V31.5269Z" fill="#54565A"/>
</g>
<g id="Group_26">
<path id="Vector_18" d="M184.129 21.4671V31.5223H181.398V21.4671H177.619V18.9099H187.912V21.4671H184.129Z" fill="#54565A"/>
</g>
<g id="Group_27">
<path id="Vector_19" d="M196.232 26.497V31.5269H193.502V26.5533L188.725 18.9099H191.917L194.878 23.9727L197.895 18.9099H201L196.232 26.497Z" fill="#54565A"/>
</g>
</g>
</g>
</g>
<g id="Group_28">
<path id="Vector_20" d="M90.4678 37.4816V42.5115H97.2499V43.3279H90.4678V48.8412H89.5762V36.6652H98.0214V37.4816H90.4678Z" fill="#C10230"/>
<path id="Vector_21" d="M108.161 46.1805C107.94 46.7389 107.626 47.2315 107.219 47.6585C106.812 48.0902 106.337 48.428 105.787 48.6767C105.237 48.9254 104.641 49.0521 103.99 49.0521C103.338 49.0521 102.742 48.9254 102.197 48.6767C101.657 48.428 101.185 48.0949 100.783 47.6773C100.382 47.2597 100.072 46.7717 99.8502 46.2181C99.6285 45.6597 99.5176 45.0685 99.5176 44.4444V44.4116C99.5176 43.7875 99.6285 43.1916 99.8502 42.638C100.072 42.0796 100.386 41.5869 100.793 41.16C101.199 40.733 101.675 40.3905 102.225 40.1418C102.775 39.8931 103.371 39.7664 104.022 39.7664C104.673 39.7664 105.269 39.8931 105.815 40.1418C106.355 40.3905 106.826 40.7236 107.228 41.1412C107.63 41.5588 107.94 42.0468 108.161 42.6004C108.383 43.1588 108.494 43.75 108.494 44.3741V44.4069C108.494 45.031 108.383 45.6222 108.161 46.1805ZM107.602 44.4069C107.602 43.8767 107.51 43.3746 107.325 42.9101C107.14 42.4409 106.886 42.0374 106.558 41.6902C106.23 41.343 105.847 41.0708 105.403 40.8738C104.96 40.6767 104.489 40.5781 103.985 40.5781C103.468 40.5781 102.987 40.6814 102.548 40.8831C102.105 41.0849 101.726 41.357 101.412 41.6949C101.098 42.0374 100.848 42.4362 100.673 42.9007C100.497 43.3606 100.405 43.8532 100.405 44.3741V44.4069C100.405 44.9371 100.497 45.4392 100.682 45.9037C100.867 46.3729 101.121 46.7764 101.449 47.1236C101.777 47.4708 102.16 47.743 102.604 47.9354C103.047 48.1324 103.518 48.231 104.022 48.231C104.539 48.231 105.015 48.1324 105.459 47.926C105.902 47.7242 106.281 47.4521 106.595 47.1142C106.909 46.7717 107.159 46.3729 107.335 45.9084C107.515 45.4485 107.602 44.9559 107.602 44.4351V44.4069Z" fill="#C10230"/>
<path id="Vector_22" d="M117.334 48.8411V47.1895C117.038 47.7103 116.636 48.1513 116.132 48.5126C115.629 48.8739 114.977 49.0522 114.178 49.0522C113.628 49.0522 113.139 48.9631 112.704 48.7848C112.27 48.6065 111.901 48.3531 111.6 48.0293C111.295 47.7056 111.069 47.3208 110.917 46.8704C110.764 46.4246 110.686 45.932 110.686 45.4018V39.9683H111.526V45.2375C111.526 46.1525 111.767 46.8892 112.247 47.4381C112.728 47.9871 113.411 48.2639 114.303 48.2639C114.723 48.2639 115.121 48.1842 115.495 48.0293C115.865 47.8745 116.188 47.654 116.46 47.3771C116.733 47.1003 116.95 46.7672 117.103 46.3777C117.255 45.9883 117.334 45.5613 117.334 45.1015V39.9683H118.174V48.8411H117.334Z" fill="#C10230"/>
<path id="Vector_23" d="M127.709 48.8407V43.5714C127.709 42.6565 127.469 41.9198 126.989 41.3709C126.508 40.8219 125.824 40.545 124.933 40.545C124.499 40.545 124.101 40.6248 123.732 40.7796C123.367 40.9345 123.048 41.155 122.771 41.4318C122.498 41.7087 122.281 42.0418 122.128 42.4313C121.976 42.8207 121.897 43.2477 121.897 43.7075V48.8407H121.057V39.9679H121.897V41.6195C122.193 41.0987 122.595 40.6577 123.099 40.2964C123.602 39.9351 124.254 39.7568 125.053 39.7568C125.603 39.7568 126.092 39.8459 126.527 40.0289C126.961 40.2072 127.331 40.4606 127.631 40.7843C127.931 41.1081 128.162 41.4928 128.315 41.9433C128.467 42.389 128.546 42.8817 128.546 43.4119V48.8407H127.709Z" fill="#C10230"/>
<path id="Vector_24" d="M138.645 48.841V46.8563C138.451 47.1472 138.239 47.424 138.003 47.6915C137.768 47.9589 137.509 48.1888 137.218 48.3859C136.927 48.583 136.603 48.7425 136.243 48.8645C135.883 48.9865 135.485 49.0475 135.051 49.0475C134.524 49.0475 134.007 48.9443 133.499 48.7331C132.991 48.522 132.538 48.2217 132.136 47.8276C131.734 47.4334 131.415 46.9501 131.17 46.373C130.926 45.8006 130.801 45.1531 130.801 44.4352V44.4023C130.801 43.6844 130.926 43.0369 131.17 42.4645C131.415 41.892 131.739 41.4041 132.136 41.0052C132.538 40.6064 132.991 40.2967 133.499 40.0809C134.007 39.8651 134.524 39.7571 135.051 39.7571C135.485 39.7571 135.883 39.8134 136.252 39.9307C136.617 40.048 136.945 40.2029 137.236 40.4C137.527 40.597 137.791 40.8222 138.026 41.0803C138.262 41.3337 138.47 41.6011 138.65 41.8827V36.1442H139.491V48.8457H138.645V48.841ZM138.696 44.3882C138.696 43.8205 138.595 43.2997 138.396 42.8305C138.197 42.3613 137.929 41.9624 137.597 41.6293C137.264 41.3008 136.885 41.0381 136.456 40.8551C136.026 40.6721 135.582 40.5783 135.125 40.5783C134.645 40.5783 134.196 40.6674 133.776 40.841C133.36 41.0146 132.995 41.2633 132.686 41.5871C132.376 41.9108 132.131 42.3096 131.956 42.7788C131.78 43.2481 131.688 43.7783 131.688 44.3695V44.4023C131.688 44.9841 131.78 45.5097 131.96 45.9836C132.145 46.4575 132.395 46.861 132.709 47.1941C133.023 47.5226 133.388 47.7806 133.808 47.9589C134.224 48.1372 134.663 48.2264 135.12 48.2264C135.578 48.2264 136.021 48.1325 136.451 47.9495C136.881 47.7666 137.259 47.5038 137.592 47.166C137.925 46.8281 138.188 46.4293 138.391 45.9648C138.59 45.5003 138.692 44.9841 138.692 44.4164V44.3882H138.696Z" fill="#C10230"/>
<path id="Vector_25" d="M148.388 48.8408V47.3628C148.24 47.5693 148.06 47.7757 147.847 47.9822C147.635 48.1839 147.395 48.3669 147.118 48.5218C146.845 48.6766 146.531 48.808 146.184 48.9065C145.838 49.0051 145.454 49.0567 145.043 49.0567C144.632 49.0567 144.225 49.0004 143.828 48.8831C143.426 48.7658 143.07 48.5922 142.747 48.3623C142.428 48.1323 142.165 47.8414 141.966 47.4942C141.768 47.147 141.666 46.7388 141.666 46.2743V46.2414C141.666 45.7769 141.758 45.364 141.948 45.0074C142.137 44.6461 142.396 44.3458 142.729 44.1018C143.061 43.8578 143.459 43.6748 143.93 43.5435C144.396 43.4168 144.918 43.3511 145.487 43.3511C146.101 43.3511 146.632 43.3839 147.081 43.4543C147.524 43.5247 147.958 43.6185 148.383 43.7311V43.3511C148.383 42.4502 148.129 41.7792 147.621 41.3288C147.113 40.8783 146.406 40.6531 145.505 40.6531C144.969 40.6531 144.475 40.7188 144.031 40.8549C143.588 40.991 143.163 41.1599 142.766 41.3663L142.456 40.6156C142.936 40.3763 143.422 40.1886 143.911 40.0478C144.401 39.9071 144.951 39.8367 145.556 39.8367C146.688 39.8367 147.58 40.1276 148.226 40.7047C148.878 41.2866 149.201 42.1546 149.201 43.3135V48.8455H148.388V48.8408ZM148.407 44.51C148.042 44.4162 147.612 44.327 147.122 44.2426C146.632 44.1581 146.073 44.1112 145.445 44.1112C144.521 44.1112 143.81 44.2989 143.311 44.6743C142.812 45.0496 142.567 45.547 142.567 46.171V46.2039C142.567 46.5276 142.636 46.8139 142.77 47.0625C142.909 47.3112 143.094 47.5224 143.329 47.696C143.565 47.8696 143.833 48.001 144.142 48.0948C144.452 48.1886 144.771 48.2356 145.103 48.2356C145.547 48.2356 145.972 48.1699 146.369 48.0385C146.771 47.9071 147.122 47.7194 147.422 47.4848C147.723 47.2502 147.963 46.964 148.143 46.6262C148.319 46.293 148.411 45.9224 148.411 45.5188V44.51H148.407Z" fill="#C10230"/>
<path id="Vector_26" d="M155.396 48.9207C155.175 48.9724 154.925 49.0005 154.653 49.0005C154.311 49.0005 153.992 48.9536 153.692 48.8597C153.396 48.7659 153.133 48.6204 152.911 48.414C152.689 48.2122 152.514 47.9542 152.389 47.6492C152.264 47.3442 152.199 46.9782 152.199 46.5606V40.7518H150.934V39.9682H152.199V37.1342H153.04V39.9682H156.108V40.7518H153.04V46.4621C153.04 47.1002 153.202 47.546 153.53 47.7993C153.853 48.0527 154.274 48.1794 154.791 48.1794C155.008 48.1794 155.212 48.1559 155.406 48.1137C155.6 48.0715 155.821 47.9917 156.076 47.8838V48.6861C155.845 48.7894 155.618 48.8691 155.396 48.9207Z" fill="#C10230"/>
<path id="Vector_27" d="M158.104 37.6552V36.4915H159.148V37.6552H158.104ZM158.205 48.8411V39.9684H159.046V48.8411H158.205Z" fill="#C10230"/>
<path id="Vector_28" d="M170.038 46.1805C169.816 46.7389 169.502 47.2315 169.095 47.6585C168.689 48.0902 168.213 48.428 167.663 48.6767C167.113 48.9254 166.517 49.0521 165.866 49.0521C165.215 49.0521 164.619 48.9254 164.078 48.6767C163.537 48.428 163.066 48.0949 162.664 47.6773C162.262 47.2597 161.953 46.7717 161.731 46.2181C161.509 45.6597 161.398 45.0685 161.398 44.4444V44.4116C161.398 43.7875 161.509 43.1916 161.731 42.638C161.953 42.0796 162.267 41.5869 162.674 41.16C163.08 40.733 163.556 40.3905 164.106 40.1418C164.655 39.8931 165.251 39.7664 165.903 39.7664C166.554 39.7664 167.15 39.8931 167.691 40.1418C168.231 40.3905 168.703 40.7236 169.105 41.1412C169.506 41.5588 169.816 42.0468 170.038 42.6004C170.259 43.1588 170.37 43.75 170.37 44.3741V44.4069C170.37 45.031 170.259 45.6222 170.038 46.1805ZM169.479 44.4069C169.479 43.8767 169.386 43.3746 169.202 42.9101C169.017 42.4409 168.763 42.0374 168.435 41.6902C168.107 41.343 167.723 41.0708 167.28 40.8738C166.836 40.6767 166.365 40.5781 165.861 40.5781C165.344 40.5781 164.868 40.6814 164.424 40.8831C163.981 41.0849 163.602 41.357 163.288 41.6949C162.974 42.0374 162.724 42.4362 162.549 42.9007C162.373 43.3606 162.281 43.8532 162.281 44.3741V44.4069C162.281 44.9371 162.373 45.4392 162.558 45.9037C162.743 46.3729 162.997 46.7764 163.325 47.1236C163.653 47.4708 164.036 47.743 164.48 47.9354C164.923 48.1324 165.395 48.231 165.898 48.231C166.416 48.231 166.892 48.1324 167.335 47.926C167.779 47.7195 168.157 47.4521 168.472 47.1142C168.786 46.7717 169.035 46.3729 169.211 45.9084C169.391 45.4485 169.479 44.9559 169.479 44.4351V44.4069Z" fill="#C10230"/>
<path id="Vector_29" d="M179.356 48.8407V43.5714C179.356 42.6565 179.116 41.9198 178.635 41.3709C178.155 40.8219 177.471 40.545 176.579 40.545C176.145 40.545 175.748 40.6248 175.378 40.7796C175.013 40.9345 174.694 41.155 174.417 41.4318C174.145 41.7087 173.927 42.0418 173.775 42.4313C173.622 42.8207 173.544 43.2477 173.544 43.7075V48.8407H172.703V39.9679H173.544V41.6195C173.84 41.0987 174.242 40.6577 174.745 40.2964C175.249 39.9351 175.9 39.7568 176.699 39.7568C177.249 39.7568 177.739 39.8459 178.173 40.0289C178.607 40.2072 178.977 40.4606 179.277 40.7843C179.578 41.1081 179.809 41.4928 179.961 41.9433C180.114 42.389 180.192 42.8817 180.192 43.4119V48.8407H179.356Z" fill="#C10230"/>
</g>
</g>
</svg>
